<svg width="450" height="472" viewBox="0 0 450 472" fill="none" xmlns="http://www.w3.org/2000/svg">
<g clip-path="url(#clip0_1955_8905)">
<path d="M142.06 424.03C142.06 424.03 146.17 424.5 149.01 423.71C152.11 422.86 154.36 423.44 156.48 425.11C159.19 427.25 158.4 431.94 156.62 434.76C153.69 439.41 147.56 442.34 141.25 445.71C134.62 449.25 127.07 452.45 121.03 449.68C121.01 449.68 121 449.66 120.98 449.65C110.15 445.64 112.21 440.17 112.43 433.71L112.55 430.19" fill="#FFFEF6"/>
<path d="M142.06 424.03C142.06 424.03 146.17 424.5 149.01 423.71C152.11 422.86 154.36 423.44 156.48 425.11C159.19 427.25 158.4 431.94 156.62 434.76C153.69 439.41 147.56 442.34 141.25 445.71C134.62 449.25 127.07 452.45 121.03 449.68C121.01 449.68 121 449.66 120.98 449.65C110.15 445.64 112.21 440.17 112.43 433.71L112.55 430.19" stroke="#090044" stroke-linecap="round" stroke-linejoin="round"/>
<path d="M126.91 414.15C126.91 414.15 131.02 414.62 133.86 413.83C136.96 412.98 139.21 413.56 141.33 415.23C144.04 417.37 143.25 422.06 141.47 424.88C138.54 429.53 132.41 432.46 126.1 435.83C119.47 439.37 111.92 442.57 105.88 439.8C105.86 439.8 105.85 439.78 105.83 439.77C94.9995 435.76 97.0595 430.29 97.2795 423.83L97.3995 420.31" fill="#FFFEF6"/>
<path d="M126.91 414.15C126.91 414.15 131.02 414.62 133.86 413.83C136.96 412.98 139.21 413.56 141.33 415.23C144.04 417.37 143.25 422.06 141.47 424.88C138.54 429.53 132.41 432.46 126.1 435.83C119.47 439.37 111.92 442.57 105.88 439.8C105.86 439.8 105.85 439.78 105.83 439.77C94.9995 435.76 97.0595 430.29 97.2795 423.83L97.3995 420.31" stroke="#090044" stroke-linecap="round" stroke-linejoin="round"/>
<path d="M91.8503 342.92C88.8103 342.08 87.0503 338.2 86.2303 333.24C85.7103 330.1 86.1603 327.44 86.1603 327.44L98.7303 321.69L91.8503 342.93V342.92Z" fill="#FFFEF6" stroke="#090044" stroke-linecap="round" stroke-linejoin="round"/>
<path d="M92.7102 319.87C92.7102 319.87 91.0702 363.69 90.9502 376.23C90.8302 388.77 89.7002 425.52 89.7002 425.52C89.7002 431.13 98.3402 436.04 109.29 435.89L123.92 429.44L120.1 331.48" fill="#FFFEF6"/>
<path d="M92.7102 319.87C92.7102 319.87 91.0702 363.69 90.9502 376.23C90.8302 388.77 89.7002 425.52 89.7002 425.52C89.7002 431.13 98.3402 436.04 109.29 435.89L123.92 429.44L120.1 331.48" stroke="#090044" stroke-linecap="round" stroke-linejoin="round"/>
<path d="M110.77 323.8C110.77 323.8 110.67 373.76 110.29 383.17C109.91 392.58 109.29 436.65 109.29 436.65C109.29 442.26 117.16 446.81 126.88 446.81C136.6 446.81 144.47 442.26 144.47 436.65C144.47 436.65 143.89 414.17 143.5 401.31C143.12 388.45 146.77 323.68 146.77 323.68" fill="#FFFEF6"/>
<path d="M110.77 323.8C110.77 323.8 110.67 373.76 110.29 383.17C109.91 392.58 109.29 436.65 109.29 436.65C109.29 442.26 117.16 446.81 126.88 446.81C136.6 446.81 144.47 442.26 144.47 436.65C144.47 436.65 143.89 414.17 143.5 401.31C143.12 388.45 146.77 323.68 146.77 323.68" stroke="#090044" stroke-linecap="round" stroke-linejoin="round"/>
<path d="M363.94 140.9C361.52 135.54 357.83 130.88 353.7 128.48L169.39 22.18C166.05 20.27 163.06 20.24 160.72 21.59L160.69 21.54L153.42 25.55L156.17 32.47L358.65 153.53L363.95 140.89L363.94 140.9Z" fill="#FFFEF6" stroke="#090044" stroke-linecap="round" stroke-linejoin="round"/>
<path d="M169.39 292.58L352.55 398.21L354.73 403.65L360.76 400.18C361.81 399.91 362.75 399.34 363.56 398.59L363.64 398.54V398.51C365.66 396.6 366.93 393.31 366.93 388.87V153.78C366.93 149.55 365.8 145.03 363.94 140.9L169.39 292.58Z" fill="#090044" stroke="#090044" stroke-linecap="round" stroke-linejoin="round"/>
<path d="M161.48 296.85L345.8 403.14C353.11 407.36 359.03 402.88 359.03 393.14V158.03C359.03 148.29 353.11 136.97 345.8 132.75L161.48 26.46C154.17 22.24 148.25 26.72 148.25 36.46V271.57C148.25 281.31 154.17 292.63 161.48 296.85Z" fill="#FFFEF6" stroke="#090044" stroke-linecap="round" stroke-linejoin="round"/>
<path d="M188.66 282.3C182.61 278.81 177.68 270.31 177.68 263.37C177.68 256.43 182.6 253.62 188.66 257.11L224.48 277.79C230.53 281.28 235.46 289.78 235.46 296.72C235.46 303.66 230.54 306.47 224.48 302.98L188.66 282.3Z" fill="#FFFEF6" stroke="#090044" stroke-linecap="round" stroke-linejoin="round"/>
<path d="M227.95 292.06C227.95 295.61 225.44 297.04 222.35 295.25C219.26 293.46 216.75 289.14 216.75 285.59C216.75 282.04 219.26 280.61 222.35 282.4C225.44 284.19 227.95 288.51 227.95 292.06Z" fill="#F2FF80" stroke="#090044" stroke-linecap="round" stroke-linejoin="round"/>
<path d="M203.24 279.17C203.24 283.45 201.76 286.49 199.36 287.96C199.28 288 190.62 290.23 190.55 290.26C190.3 290.4 190.09 290.49 189.92 290.52C192.27 289.34 193.73 286.65 193.73 282.79C193.73 275.23 188.15 266.03 181.27 262.23C177.49 260.14 174.1 260.12 171.81 261.78C171.91 261.62 172.11 261.46 172.45 261.27C172.52 261.24 179.65 254.24 179.65 254.24C182.22 252.85 185.63 253.1 189.39 255.27C197.04 259.69 203.24 270.39 203.24 279.17Z" fill="#5A569C" stroke="#090044" stroke-linecap="round" stroke-linejoin="round"/>
<path d="M193.73 282.79C193.73 286.65 192.27 289.34 189.92 290.52C187.68 291.67 184.63 291.45 181.27 289.59C174.38 285.78 168.8 276.58 168.8 269.02C168.8 265.62 169.93 263.13 171.81 261.78C174.1 260.12 177.49 260.14 181.27 262.23C188.15 266.03 193.73 275.23 193.73 282.79Z" fill="#FFFEF6" stroke="#090044" stroke-linecap="round" stroke-linejoin="round"/>
<path d="M262.35 324.81C256.3 321.32 251.37 312.82 251.37 305.88C251.37 298.94 256.29 296.13 262.35 299.62L298.17 320.3C304.22 323.79 309.15 332.29 309.15 339.23C309.15 346.17 304.23 348.98 298.17 345.49L262.35 324.81Z" fill="#FFFEF6" stroke="#090044" stroke-linecap="round" stroke-linejoin="round"/>
<path d="M301.64 334.57C301.64 338.12 299.13 339.55 296.04 337.76C292.95 335.97 290.44 331.65 290.44 328.1C290.44 324.55 292.95 323.12 296.04 324.91C299.13 326.7 301.64 331.02 301.64 334.57Z" fill="#F2FF80" stroke="#090044" stroke-linecap="round" stroke-linejoin="round"/>
<path d="M276.93 321.68C276.93 325.97 275.45 329 273.05 330.47C272.97 330.52 264.31 332.74 264.24 332.78C263.99 332.91 263.78 333 263.61 333.03C265.96 331.86 267.42 329.17 267.42 325.3C267.42 317.75 261.84 308.54 254.96 304.74C251.17 302.65 247.78 302.63 245.5 304.3C245.59 304.15 245.79 303.98 246.14 303.79C246.2 303.75 253.34 296.76 253.34 296.76C255.91 295.37 259.32 295.62 263.08 297.79C270.73 302.21 276.93 312.9 276.93 321.68Z" fill="#5A569C" stroke="#090044" stroke-linecap="round" stroke-linejoin="round"/>
<path d="M267.42 325.3C267.42 329.17 265.96 331.86 263.61 333.03C261.37 334.18 258.32 333.96 254.96 332.1C248.07 328.3 242.49 319.09 242.49 311.54C242.49 308.14 243.62 305.65 245.5 304.3C247.78 302.63 251.17 302.65 254.96 304.74C261.84 308.54 267.42 317.75 267.42 325.3Z" fill="#FFFEF6" stroke="#090044" stroke-linecap="round" stroke-linejoin="round"/>
<path d="M341.32 325.52L292.61 296.97C291.34 296.24 290.32 294.28 290.32 292.59V287.61C290.32 285.92 291.35 285.15 292.61 285.88L341.32 314.43C342.59 315.16 343.61 317.12 343.61 318.81V323.79C343.61 325.48 342.58 326.25 341.32 325.52Z" fill="#FFFEF6" stroke="#090044" stroke-linecap="round" stroke-linejoin="round"/>
<path d="M341.32 306.75L292.61 278.2C291.34 277.47 290.32 275.51 290.32 273.82V268.84C290.32 267.15 291.35 266.38 292.61 267.11L341.32 295.66C342.59 296.39 343.61 298.35 343.61 300.04V305.02C343.61 306.71 342.58 307.48 341.32 306.75Z" fill="#FFFEF6" stroke="#090044" stroke-linecap="round" stroke-linejoin="round"/>
<path d="M347.57 383.26C347.57 386.65 345.51 388.21 342.96 386.74C340.42 385.27 338.35 381.33 338.35 377.94C338.35 374.55 340.41 372.99 342.96 374.46C345.5 375.93 347.57 379.87 347.57 383.26Z" fill="#FFFEF6" stroke="#090044" stroke-linecap="round" stroke-linejoin="round"/>
<path d="M347.57 153.27C347.57 156.66 345.51 158.22 342.96 156.75C340.42 155.28 338.35 151.34 338.35 147.95C338.35 144.56 340.41 143 342.96 144.47C345.5 145.94 347.57 149.88 347.57 153.27Z" fill="#FFFEF6" stroke="#090044" stroke-linecap="round" stroke-linejoin="round"/>
<path d="M165.12 46.2401C165.12 49.6301 163.06 51.1901 160.51 49.7201C157.97 48.2501 155.9 44.3101 155.9 40.9201C155.9 37.5301 157.96 35.9701 160.51 37.4401C163.05 38.9101 165.12 42.8501 165.12 46.2401Z" fill="#FFFEF6" stroke="#090044" stroke-linecap="round" stroke-linejoin="round"/>
<path fill-rule="evenodd" clip-rule="evenodd" d="M313.72 270.11L306.44 265.93V233.93L313.72 238.11V270.11ZM324.28 276.18L317 272V249.22L324.28 253.4V276.18ZM334.84 282.24L327.56 278.06V237.83L334.84 242.01V282.24ZM338.13 284.13V236.66L345.41 240.84V288.31L338.13 284.13Z" fill="#FFFEF6" stroke="#090044" stroke-linecap="round" stroke-linejoin="round"/>
<path d="M214.27 182.63C214.19 182.63 214.12 182.62 214.04 182.59C213.79 182.5 213.62 182.25 213.62 181.98L213.57 126.54C213.57 126.31 213.69 126.09 213.9 125.98L237.6 112.33C237.7 112.27 237.81 112.24 237.92 112.24C238.03 112.24 238.14 112.27 238.25 112.33C238.45 112.45 238.58 112.66 238.58 112.89V115.16C238.58 115.39 238.45 115.61 238.25 115.72L216.03 128.34L216.1 180.61C216.1 180.77 216.04 180.92 215.94 181.04L214.77 182.4C214.64 182.55 214.46 182.62 214.28 182.62L214.27 182.63Z" fill="#090044"/>
<path d="M237.92 112.89V115.16L215.37 127.97L215.44 180.62L214.26 181.98L214.21 126.54L237.91 112.89M237.92 111.59C237.7 111.59 237.47 111.65 237.27 111.76L213.57 125.41C213.17 125.64 212.92 126.07 212.92 126.54L212.97 181.98C212.97 182.52 213.31 183.01 213.82 183.2C213.97 183.25 214.12 183.28 214.27 183.28C214.64 183.28 215 183.12 215.25 182.83L216.43 181.47C216.63 181.23 216.75 180.93 216.75 180.62L216.68 128.73L238.57 116.29C238.98 116.06 239.23 115.63 239.23 115.16V112.89C239.23 112.43 238.98 112 238.58 111.76C238.38 111.64 238.15 111.59 237.93 111.59H237.92Z" fill="#090044"/>
<path d="M222.84 133.27C222.84 133.27 267.65 161.11 273.49 212.85C279.15 263.01 244.54 260.66 244.54 260.66C244.54 260.66 216.25 261.09 191.2 223.91C167.68 189 170.2 162.74 170.2 162.74L222.21 193.3L222.85 133.28L222.84 133.27Z" fill="#FFFEF6" stroke="#090044" stroke-linecap="round" stroke-linejoin="round"/>
<path d="M166.06 153.63L214.22 181.93V126.55C214.22 126.55 173.32 103.56 166.06 153.63Z" fill="#F2FF80" stroke="#090044" stroke-linecap="round" stroke-linejoin="round"/>
<path d="M237.919 112.89L214.219 126.55C214.219 126.55 197.229 116.99 183.199 123.62L207.879 109.41C207.879 109.41 220.519 101.53 237.919 112.89Z" fill="#F2FF80" stroke="#090044" stroke-linecap="round" stroke-linejoin="round"/>
<path d="M296.69 225.18C293.02 238.59 283.42 243.16 283.42 243.16L259.58 256.6C268.11 251.38 276.51 239.56 273.49 212.85C267.65 161.11 222.84 133.27 222.84 133.27L247.54 119.18C247.54 119.18 260.66 124.93 277.92 148.39C293.49 169.54 298.07 197.42 298.07 197.42C298.07 197.42 300.51 211.28 296.7 225.19L296.69 225.18Z" fill="#5A569C" stroke="#090044" stroke-linecap="round" stroke-linejoin="round"/>
<path d="M191.57 294.31C191.57 294.31 194.47 293.48 196.98 292.32C199.49 291.17 202.36 286 202.84 282.99C203.32 279.98 202.15 279.67 200.27 279.92C198.39 280.17 195.44 282.69 194.61 281.48C194.03 280.63 196.21 279.61 197.27 278.34C198.34 277.07 197.81 275.43 196.3 275.36C194.57 275.28 185.78 279.89 185.78 279.89" fill="#FFFEF6"/>
<path d="M191.57 294.31C191.57 294.31 194.47 293.48 196.98 292.32C199.49 291.17 202.36 286 202.84 282.99C203.32 279.98 202.15 279.67 200.27 279.92C198.39 280.17 195.44 282.69 194.61 281.48C194.03 280.63 196.21 279.61 197.27 278.34C198.34 277.07 197.81 275.43 196.3 275.36C194.57 275.28 185.78 279.89 185.78 279.89" stroke="#090044" stroke-linecap="round" stroke-linejoin="round"/>
<path d="M138.32 246.52C136.42 245.21 136.25 242.28 136.36 241.36C136.36 241.32 136.37 241.3 136.37 241.27L136.4 241.34" fill="#FFFEF6"/>
<path d="M138.32 246.52C136.42 245.21 136.25 242.28 136.36 241.36C136.36 241.32 136.37 241.3 136.37 241.27L136.4 241.34" stroke="#090044" stroke-linecap="round" stroke-linejoin="round"/>
<path d="M145.441 223.98C145.441 225.84 145.201 227.65 144.741 229.38C143.871 232.73 142.191 235.76 139.921 238.24H139.911C138.871 239.4 137.691 240.44 136.401 241.34C136.391 241.35 136.371 241.36 136.361 241.36C132.931 243.77 128.751 245.17 124.251 245.17C120.671 245.17 117.301 244.28 114.351 242.71C114.291 242.69 114.241 242.66 114.181 242.63C113.621 242.32 113.061 241.99 112.531 241.63C112.261 241.45 112.001 241.27 111.741 241.08C111.481 240.89 111.231 240.69 110.981 240.49C106.151 236.61 103.061 230.66 103.061 223.98C103.061 215.99 107.481 209.04 114.001 205.43C117.041 203.74 120.531 202.78 124.251 202.78C135.951 202.78 145.441 212.27 145.441 223.98Z" fill="#FFFEF6" stroke="#090044" stroke-linecap="round" stroke-linejoin="round"/>
<path d="M139.92 238.24C142.03 238.68 145.55 236.74 145.82 232.89C146.18 227.84 140.84 227.82 140.84 227.82C138.88 234.72 133 239.91 125.87 240.65C120.64 241.19 113.93 239.89 105.87 234.33" fill="#FFFEF6"/>
<path d="M139.92 238.24C142.03 238.68 145.55 236.74 145.82 232.89C146.18 227.84 140.84 227.82 140.84 227.82C138.88 234.72 133 239.91 125.87 240.65C120.64 241.19 113.93 239.89 105.87 234.33" stroke="#090044" stroke-linecap="round" stroke-linejoin="round"/>
<path d="M97.7001 256.61L90.8701 313.94C90.8701 323.62 104.47 331.48 121.24 331.48" fill="#FFFEF6"/>
<path d="M97.7001 256.61L90.8701 313.94C90.8701 323.62 104.47 331.48 121.24 331.48" stroke="#090044" stroke-linecap="round" stroke-linejoin="round"/>
<path d="M146.73 302.23L146.41 287.99" stroke="#090044" stroke-linecap="round" stroke-linejoin="round"/>
<path d="M192.52 289.74C192.5 291.21 192.27 292.73 191.75 294.26C191.66 294.54 191.56 294.82 191.44 295.1C190.83 296.56 189.65 297.72 188.18 298.3L182.93 300.39L173.86 303.99L163.7 308.02L160.84 309.15C156.81 310.76 152.2 309.74 149.22 306.59C148.05 305.35 147.2 303.86 146.73 302.23L146.77 323.68C141.43 326.38 128.97 331.51 121.33 331.51C120.9 331.51 120.45 331.49 120 331.45C119.98 331.45 119.96 331.45 119.94 331.45C119.77 331.44 119.6 331.43 119.43 331.41V331.44C118.97 331.42 118.52 331.4 118.07 331.38C117.61 331.35 117.15 331.31 116.69 331.28C116.64 331.27 116.59 331.27 116.53 331.26C115.55 331.18 114.59 331.06 113.65 330.92C113.16 330.85 112.68 330.77 112.21 330.68C111.73 330.6 111.26 330.51 110.8 330.41C110.28 330.3 109.77 330.18 109.28 330.05C108.98 329.99 108.69 329.91 108.4 329.82C107.94 329.71 107.49 329.58 107.05 329.44C107.03 329.44 107.01 329.44 106.99 329.44C106.48 329.28 105.98 329.11 105.49 328.94C105.38 328.9 105.27 328.86 105.16 328.82C104.64 328.64 104.13 328.44 103.64 328.23C103.57 328.21 103.5 328.18 103.43 328.15C103.19 328.05 102.96 327.95 102.74 327.85C102.16 327.6 101.59 327.33 101.05 327.04C100.84 326.93 100.63 326.82 100.43 326.71C99.6904 326.31 98.9904 325.89 98.3204 325.45C98.1004 325.3 97.8804 325.15 97.6704 325C97.4704 324.87 97.2704 324.73 97.0804 324.57C96.9404 324.47 96.8104 324.37 96.6804 324.26C96.2404 323.92 95.8304 323.57 95.4404 323.2C95.2604 323.03 95.0804 322.86 94.9104 322.69C94.0504 321.84 93.3104 320.93 92.7104 319.99L92.5404 324.53V324.75L92.4804 326.13L92.4204 327.74L92.3804 328.7C89.4504 328.52 87.4604 328.1 86.1304 327.66C84.1804 327.01 83.6504 326.32 83.6504 326.32C83.6504 326.32 85.9204 301 86.6404 295.73C87.3804 290.45 89.2904 267.99 90.1404 261.33C90.9604 254.79 92.7504 250.76 95.5204 248.11C96.5404 247.13 97.6904 246.34 98.9704 245.68C102.26 243.97 107.82 241.74 110.98 240.5C111.23 240.7 111.48 240.9 111.74 241.09C112 241.28 112.26 241.46 112.53 241.64C113.06 242 113.62 242.33 114.18 242.64C114.09 242.87 113.99 243.15 113.9 243.45C113.39 245.07 113.23 247.58 118.02 249.44C121.3 250.65 124.72 251.24 127.78 251.24C131.63 251.24 134.91 250.31 136.61 248.53C137.7 247.36 138.32 246.53 138.32 246.53C138.73 246.91 139.15 247.26 139.49 247.55C139.95 247.95 141.72 249.25 144.01 251.13C145.3 252.19 146.77 253.45 148.25 254.84C151.62 257.99 155.1 261.85 156.89 265.79C160.11 272.87 162.03 280.85 162.03 288.6L174.69 283.9L185.08 280.04C185.21 279.99 185.34 279.95 185.47 279.92C185.55 279.89 185.64 279.87 185.72 279.86C185.81 279.83 185.89 279.81 185.98 279.8H185.99C188.28 279.41 190.61 280.69 191.39 282.97C191.51 283.33 191.63 283.7 191.74 284.09C192.09 285.3 192.37 286.66 192.47 288.1C192.52 288.64 192.54 289.19 192.52 289.75V289.74Z" fill="#FFFEF6" stroke="#090044" stroke-linecap="round" stroke-linejoin="round"/>
<path d="M138.32 246.52C138.32 246.52 137.7 247.35 136.61 248.52C134.91 250.3 131.63 251.23 127.78 251.23C124.72 251.23 121.3 250.64 118.02 249.43C113.23 247.57 113.39 245.06 113.9 243.44C114.06 243.2 114.22 242.95 114.35 242.71C117.3 244.28 120.67 245.17 124.25 245.17C128.75 245.17 132.93 243.77 136.36 241.36C136.25 242.28 136.42 245.21 138.32 246.52Z" fill="#FFFEF6" stroke="#090044" stroke-linecap="round" stroke-linejoin="round"/>
<path d="M116.341 221.31C113.131 225.26 115.081 230.39 115.551 235.44C115.671 236.75 115.691 238.05 115.501 239.33C115.321 240.48 114.971 241.62 114.351 242.71C114.221 242.95 114.061 243.2 113.901 243.44C113.271 244.35 112.451 245.22 111.381 246.05C105.531 250.58 99.6706 249.79 95.5206 248.1C91.9606 246.66 89.6406 244.56 89.6406 244.56C102.131 246.29 93.5206 231.65 93.0906 219.16C92.6606 206.67 100.481 200.97 112.031 204.52C112.711 204.73 113.371 205.03 114.001 205.43C118.531 208.21 121.251 215.26 116.341 221.31Z" fill="#FFFEF6" stroke="#090044" stroke-linecap="round" stroke-linejoin="round"/>
<path d="M97.7001 256.61L90.8701 313.94C90.8701 323.62 104.47 331.48 121.24 331.48" fill="#FFFEF6"/>
<path d="M97.7001 256.61L90.8701 313.94C90.8701 323.62 104.47 331.48 121.24 331.48" stroke="#090044" stroke-linecap="round" stroke-linejoin="round"/>
</g>
<defs>
<clipPath id="clip0_1955_8905">
<rect width="284.58" height="431.52" fill="white" transform="translate(83 20)"/>
</clipPath>
</defs>
</svg>
