<svg width="450" height="472" viewBox="0 0 450 472" fill="none" xmlns="http://www.w3.org/2000/svg">
<path d="M43.123 243.63L65.913 256.79L43.123 269.94L20.333 256.79L43.123 243.63Z" fill="#FFFFF6" stroke="#090044" stroke-linecap="round" stroke-linejoin="round"/>
<path d="M20.333 326.691L43.123 339.851V269.941L20.333 256.791V326.691Z" fill="#FFFFF6" stroke="#090044" stroke-linecap="round" stroke-linejoin="round"/>
<path d="M65.913 326.691L43.123 339.851V269.941L65.913 256.791V326.691Z" fill="#372F75" stroke="#090044" stroke-linecap="round" stroke-linejoin="round"/>
<path d="M43.1232 225.57L61.0032 235.89L43.1232 246.21L25.2432 235.89L43.1232 225.57Z" fill="#FFFFF6" stroke="#090044" stroke-linecap="round" stroke-linejoin="round"/>
<path d="M27.2031 255.98L43.1231 265.17V243.95L27.2031 234.76V255.98Z" fill="#FFFFF6" stroke="#090044" stroke-linecap="round" stroke-linejoin="round"/>
<path d="M59.043 255.98L43.123 265.17V243.95L59.043 234.76V255.98Z" fill="#F2F2E8" stroke="#090044" stroke-linecap="round" stroke-linejoin="round"/>
<path d="M43.123 207.05L65.913 220.2L43.123 233.36L20.333 220.2L43.123 207.05Z" fill="#FFFFF6" stroke="#090044" stroke-linecap="round" stroke-linejoin="round"/>
<path d="M20.333 250.58L43.123 263.74V233.36L20.333 220.2V250.58Z" fill="#FFFFF6" stroke="#090044" stroke-linecap="round" stroke-linejoin="round"/>
<path d="M27.4434 282.2L36.0134 287.14V275.72L27.4434 270.78V282.2Z" fill="#FFFFF6" stroke="#090044" stroke-linecap="round" stroke-linejoin="round"/>
<path d="M61.5534 286.73L47.4834 294.86V278.07L61.5534 269.94V286.73Z" fill="#5A569C" stroke="#090044" stroke-linecap="round" stroke-linejoin="round"/>
<path d="M58.4727 278.83L50.5527 283.41V279.7L58.4727 275.13V278.83Z" fill="#090044" stroke="#090044" stroke-linecap="round" stroke-linejoin="round"/>
<path d="M65.913 250.58L43.123 263.74V233.36L65.913 220.2V250.58Z" fill="#372F75" stroke="#090044" stroke-linecap="round" stroke-linejoin="round"/>
<path d="M53.703 251.71C53.243 251.71 52.783 251.35 52.783 250.67V245.76L50.763 246.92C50.603 247.01 50.433 247.06 50.263 247.06C49.973 247.06 49.703 246.92 49.533 246.67C49.313 246.34 49.283 245.87 49.463 245.41L54.173 233.19C54.393 232.61 54.853 232.23 55.333 232.23C55.793 232.23 56.253 232.59 56.253 233.27V238.18L58.273 237.02C58.433 236.93 58.603 236.88 58.773 236.88C59.063 236.88 59.333 237.02 59.503 237.27C59.723 237.59 59.753 238.07 59.573 238.53L54.863 250.75C54.643 251.33 54.183 251.71 53.703 251.71Z" fill="#F2FF80"/>
<path d="M55.3326 232.88C55.4826 232.88 55.6026 233.01 55.6026 233.27V238.71C55.6026 238.96 55.7126 239.1 55.8726 239.1C55.9226 239.1 55.9826 239.08 56.0526 239.05L58.5926 237.58C58.6626 237.54 58.7226 237.52 58.7726 237.52C59.0126 237.52 59.1326 237.87 58.9726 238.29L54.2626 250.51C54.1226 250.86 53.8926 251.05 53.7026 251.05C53.5526 251.05 53.4326 250.92 53.4326 250.66V245.22C53.4326 244.97 53.3226 244.83 53.1626 244.83C53.1126 244.83 53.0426 244.85 52.9826 244.88L50.4426 246.35C50.3726 246.39 50.3126 246.41 50.2626 246.41C50.0226 246.41 49.9026 246.06 50.0626 245.64L54.7726 233.42C54.9126 233.07 55.1426 232.88 55.3326 232.88ZM55.3326 231.58C54.5826 231.58 53.8826 232.12 53.5626 232.95L48.8526 245.17C48.5926 245.84 48.6526 246.53 48.9926 247.03C49.2826 247.45 49.7526 247.7 50.2626 247.7C50.5426 247.7 50.8326 247.62 51.0926 247.47L52.1326 246.87V250.66C52.1326 251.76 52.9426 252.35 53.7026 252.35C54.4626 252.35 55.1526 251.81 55.4726 250.98L60.1826 238.76C60.4426 238.09 60.3826 237.4 60.0426 236.9C59.7526 236.48 59.2826 236.23 58.7726 236.23C58.4926 236.23 58.2026 236.31 57.9426 236.46L56.9026 237.06V233.27C56.9026 232.17 56.0926 231.58 55.3326 231.58Z" fill="#090044"/>
<path d="M47.4834 304.24L61.5534 296.12" stroke="#090044" stroke-linecap="round" stroke-linejoin="round"/>
<path d="M47.4834 307.52L61.5534 299.4" stroke="#090044" stroke-linecap="round" stroke-linejoin="round"/>
<path d="M47.4834 310.81L61.5534 302.68" stroke="#090044" stroke-linecap="round" stroke-linejoin="round"/>
<path d="M47.4834 314.09L61.5534 305.96" stroke="#090044" stroke-linecap="round" stroke-linejoin="round"/>
<path d="M47.4834 317.37L61.5534 309.24" stroke="#090044" stroke-linecap="round" stroke-linejoin="round"/>
<path d="M47.4834 320.65L61.5534 312.521" stroke="#090044" stroke-linecap="round" stroke-linejoin="round"/>
<path d="M47.4834 323.93L61.5534 315.8" stroke="#090044" stroke-linecap="round" stroke-linejoin="round"/>
<path d="M47.4834 327.21L61.5534 319.08" stroke="#090044" stroke-linecap="round" stroke-linejoin="round"/>
<path d="M36.0135 275.72L31.7335 273.25C31.7335 273.25 28.6535 276.2 27.0635 280.15V280.171C26.9235 280.461 26.8135 280.8 26.8135 281.26C26.8135 282.73 27.7035 284.431 28.8035 285.061C29.3135 285.361 29.7735 285.34 30.1335 285.12C30.1335 285.12 30.1735 285.11 30.1935 285.1C30.1935 285.1 30.1935 285.1 30.2035 285.1C30.5835 284.89 33.4935 283.27 36.0035 281.37V275.74L36.0135 275.72Z" fill="#5A569C" stroke="#090044" stroke-linecap="round" stroke-linejoin="round"/>
<path d="M434.083 263.15L418.113 272.37V246.04L434.083 236.82V263.15Z" fill="#5A569C" stroke="#090044" stroke-linecap="round" stroke-linejoin="round"/>
<path d="M430.823 248.4L423.633 252.55V248.16L430.823 244V248.4Z" fill="#372F75" stroke="#090044" stroke-linecap="round" stroke-linejoin="round"/>
<path d="M398.363 260.97L418.103 272.37V246.04L398.363 234.64V260.97Z" fill="#372F75" stroke="#090044" stroke-linecap="round" stroke-linejoin="round"/>
<path d="M398.363 234.64L418.113 246.04L434.083 236.82L414.333 225.42L398.363 234.64Z" fill="#372F75" stroke="#090044" stroke-linecap="round" stroke-linejoin="round"/>
<path d="M374.453 241.32C372.003 240 368.883 240.09 365.433 242.08C357.623 246.59 351.293 258.69 351.293 269.11C351.293 274.59 353.073 278.46 355.883 280.28L369.313 288.06L388.063 249.03L374.463 241.32H374.453Z" fill="#090044" stroke="#090044" stroke-linecap="round" stroke-linejoin="round"/>
<path d="M392.653 260.28C392.653 270.7 386.323 282.79 378.513 287.3C370.703 291.81 364.373 287.02 364.373 276.61C364.373 266.19 370.703 254.1 378.513 249.59C386.323 245.08 392.653 249.87 392.653 260.28Z" fill="#090044" stroke="#090044" stroke-linecap="round" stroke-linejoin="round"/>
<path d="M386.333 263.92C386.333 269.68 382.833 276.37 378.513 278.87C374.193 281.36 370.693 278.72 370.693 272.96C370.693 267.2 374.193 260.51 378.513 258.01C382.833 255.52 386.333 258.16 386.333 263.92Z" fill="#090044" stroke="#090044" stroke-linecap="round" stroke-linejoin="round"/>
<path d="M382.533 266.12C382.533 269.08 380.733 272.52 378.513 273.8C376.293 275.08 374.493 273.72 374.493 270.76C374.493 267.8 376.293 264.36 378.513 263.08C380.733 261.8 382.533 263.16 382.533 266.12Z" fill="#090044" stroke="#090044" stroke-linecap="round" stroke-linejoin="round"/>
<path d="M379.173 266.44C379.173 267.9 378.283 269.6 377.193 270.23C376.093 270.86 375.213 270.19 375.213 268.73C375.213 267.27 376.103 265.57 377.193 264.94C378.293 264.31 379.173 264.98 379.173 266.44Z" fill="#090044" stroke="#090044" stroke-linecap="round" stroke-linejoin="round"/>
<path d="M391.723 251.32C389.273 250 386.153 250.09 382.703 252.08C374.893 256.59 368.562 268.69 368.562 279.11C368.562 284.59 370.342 288.46 373.152 290.28L386.583 298.06L405.333 259.03L391.733 251.32H391.723Z" fill="#090044" stroke="#090044" stroke-linecap="round" stroke-linejoin="round"/>
<path d="M409.932 270.27C409.932 280.69 403.602 292.78 395.792 297.29C387.982 301.8 381.652 297.01 381.652 286.6C381.652 276.19 387.982 264.09 395.792 259.58C403.602 255.07 409.932 259.86 409.932 270.27Z" fill="#5A569C" stroke="#090044" stroke-linecap="round" stroke-linejoin="round"/>
<path d="M403.613 273.92C403.613 279.68 400.113 286.37 395.793 288.87C391.473 291.36 387.973 288.72 387.973 282.96C387.973 277.2 391.473 270.51 395.793 268.01C400.113 265.52 403.613 268.16 403.613 273.92Z" fill="#5A569C" stroke="#090044" stroke-linecap="round" stroke-linejoin="round"/>
<path d="M399.803 276.11C399.803 279.07 398.003 282.51 395.783 283.79C393.563 285.07 391.763 283.71 391.763 280.75C391.763 277.79 393.563 274.35 395.783 273.07C398.003 271.79 399.803 273.15 399.803 276.11Z" fill="#372F75" stroke="#090044" stroke-linecap="round" stroke-linejoin="round"/>
<path d="M396.442 276.43C396.442 277.89 395.552 279.59 394.462 280.22C393.362 280.85 392.482 280.18 392.482 278.72C392.482 277.26 393.372 275.56 394.462 274.93C395.562 274.3 396.442 274.97 396.442 276.43Z" fill="#372F75" stroke="#090044" stroke-linecap="round" stroke-linejoin="round"/>
<path d="M352.633 310.75L261.873 363.15V336.82L352.633 284.42V310.75Z" fill="#5A569C" stroke="#090044" stroke-linecap="round" stroke-linejoin="round"/>
<path d="M278.193 336.94L270.993 341.1V336.7L278.193 332.55V336.94Z" fill="#372F75" stroke="#090044" stroke-linecap="round" stroke-linejoin="round"/>
<path d="M242.123 351.75L261.873 363.15V336.82L242.123 325.42V351.75Z" fill="#F2F2E8" stroke="#090044" stroke-linecap="round" stroke-linejoin="round"/>
<path d="M242.123 325.42L261.873 336.82L352.633 284.42L332.883 273.02L242.123 325.42Z" fill="#372F75" stroke="#090044" stroke-linecap="round" stroke-linejoin="round"/>
<path d="M438.333 231.31L262.083 333.08V216.96L438.333 115.2V231.31Z" fill="#372F75" stroke="#090044" stroke-linecap="round" stroke-linejoin="round"/>
<path d="M174.993 282.8L262.083 333.08V216.96L174.993 166.69V282.8Z" fill="#FFFFF6" stroke="#090044" stroke-linecap="round" stroke-linejoin="round"/>
<path d="M355.093 246.84C354.383 246.84 353.653 246.28 353.653 245.04V229.14C353.653 228.78 353.543 228.65 353.523 228.64C353.493 228.64 353.423 228.64 353.323 228.71L345.883 233C345.603 233.16 345.313 233.25 345.033 233.25C344.593 233.25 344.183 233.03 343.923 232.65C343.503 232.04 343.473 231.09 343.853 230.12L357.613 194.39C358.083 193.18 358.953 192.39 359.843 192.39C360.553 192.39 361.283 192.95 361.283 194.19V210.09C361.283 210.45 361.393 210.58 361.413 210.59C361.443 210.59 361.513 210.59 361.613 210.52L369.053 206.23C369.333 206.07 369.623 205.98 369.903 205.98C370.343 205.98 370.753 206.2 371.013 206.58C371.433 207.19 371.463 208.14 371.083 209.11L357.323 244.84C356.853 246.05 355.983 246.84 355.093 246.84Z" fill="#F2FF80"/>
<path d="M359.853 193.04C360.293 193.04 360.643 193.41 360.643 194.19V210.09C360.643 210.81 360.973 211.24 361.433 211.24C361.593 211.24 361.773 211.19 361.953 211.08L369.393 206.79C369.583 206.68 369.763 206.63 369.923 206.63C370.633 206.63 370.963 207.65 370.493 208.88L356.733 244.61C356.333 245.64 355.643 246.19 355.103 246.19C354.663 246.19 354.313 245.82 354.313 245.04V229.14C354.313 228.42 353.983 227.99 353.523 227.99C353.363 227.99 353.183 228.04 353.003 228.15L345.563 232.44C345.373 232.55 345.193 232.6 345.033 232.6C344.323 232.6 343.993 231.58 344.463 230.35L358.223 194.62C358.623 193.59 359.313 193.04 359.853 193.04ZM359.853 191.74C358.693 191.74 357.573 192.69 357.013 194.15L343.253 229.88C342.803 231.06 342.853 232.23 343.393 233.01C343.773 233.57 344.373 233.89 345.033 233.89C345.433 233.89 345.823 233.78 346.213 233.55L353.013 229.62V245.02C353.013 246.71 354.093 247.47 355.103 247.47C356.263 247.47 357.383 246.52 357.943 245.06L371.703 209.33C372.153 208.15 372.103 206.98 371.563 206.2C371.183 205.64 370.583 205.32 369.923 205.32C369.523 205.32 369.133 205.43 368.743 205.66L361.943 209.59V194.19C361.943 192.51 360.863 191.74 359.853 191.74Z" fill="#090044"/>
<path d="M174.993 166.69L262.083 216.96L438.333 115.28L351.253 65L174.993 166.69Z" fill="#FFFFF6" stroke="#090044" stroke-linecap="round" stroke-linejoin="round"/>
<path d="M197.923 282.31L193.003 313.2L97.4727 258.06C98.0027 255.36 98.8627 252.98 99.9327 250.97C100.593 249.7 101.363 248.59 102.183 247.57C105.053 243.88 108.613 241.43 111.723 239.62C112.133 239.37 112.503 239.13 112.873 238.92L176.373 202.3H176.413V271.82L197.923 282.31Z" fill="#FFFFF6" stroke="#090044" stroke-linecap="round" stroke-linejoin="round"/>
<path d="M256.543 248.51L176.433 202.32L111.743 239.64L191.853 285.83L256.543 248.51Z" fill="#FFFFF6" stroke="#090044" stroke-linecap="round" stroke-linejoin="round"/>
<path d="M93.1732 312.62L183.953 365.02L175.843 405.45L96.8632 359.9C95.8432 359.37 95.0632 358.67 95.0632 358.67C93.9932 357.77 93.2632 356.58 92.8532 355.07C91.4232 349.38 92.1532 330.12 92.8532 318.36H92.8132C92.9332 316.43 93.0632 314.51 93.1832 312.62H93.1732Z" fill="#FFFFF6" stroke="#090044" stroke-linecap="round" stroke-linejoin="round"/>
<path d="M193.652 246.04L193.622 249.17C193.652 249.83 193.362 250.53 192.692 250.89L172.942 262.29V257.98L192.662 247.61L193.652 246.03V246.04Z" fill="#372F75" stroke="#090044" stroke-linecap="round" stroke-linejoin="round"/>
<path d="M192.662 246.99L172.942 257.12V262.3C171.522 263.13 169.762 263.13 168.302 262.3L147.522 250.3C146.892 249.94 146.562 249.34 146.562 248.68L146.592 245.7L147.622 246.36L167.272 235.03C168.732 234.2 170.482 234.23 171.912 235.06L192.652 246.99H192.662Z" fill="#5A569C" stroke="#090044" stroke-linecap="round" stroke-linejoin="round"/>
<path d="M172.953 259.36L192.703 247.97C193.953 247.25 193.953 245.44 192.703 244.72L171.933 232.73C170.493 231.9 168.723 231.9 167.293 232.73L147.513 244.12C146.263 244.84 146.263 246.65 147.513 247.37L168.313 259.36C169.753 260.19 171.523 260.19 172.953 259.36Z" fill="#5A569C" stroke="#090044" stroke-linecap="round" stroke-linejoin="round"/>
<path d="M250.413 369.79L226.493 355.98L235.693 342.96L250.413 345.03L254.523 359.53L250.413 369.79Z" fill="#372F75" stroke="#090044" stroke-linecap="round" stroke-linejoin="round"/>
<path d="M229.503 345.17C227.053 343.85 223.933 343.94 220.483 345.93C212.673 350.44 206.343 362.54 206.343 372.96C206.343 378.44 208.123 382.31 210.933 384.13L224.363 391.91L243.113 352.88L229.513 345.17H229.503Z" fill="#090044" stroke="#090044" stroke-linecap="round" stroke-linejoin="round"/>
<path d="M247.703 364.12C247.703 374.54 241.373 386.63 233.563 391.14C225.753 395.65 219.423 390.86 219.423 380.45C219.423 370.03 225.753 357.94 233.563 353.43C241.373 348.92 247.703 353.71 247.703 364.12Z" fill="#5A569C" stroke="#090044" stroke-linecap="round" stroke-linejoin="round"/>
<path d="M241.383 367.77C241.383 373.53 237.883 380.22 233.563 382.72C229.243 385.21 225.743 382.57 225.743 376.81C225.743 371.05 229.243 364.36 233.563 361.86C237.883 359.37 241.383 362.01 241.383 367.77Z" fill="#5A569C" stroke="#090044" stroke-linecap="round" stroke-linejoin="round"/>
<path d="M237.583 369.96C237.583 372.92 235.783 376.36 233.563 377.64C231.343 378.92 229.543 377.56 229.543 374.6C229.543 371.64 231.343 368.2 233.563 366.92C235.783 365.64 237.583 367 237.583 369.96Z" fill="#372F75" stroke="#090044" stroke-linecap="round" stroke-linejoin="round"/>
<path d="M234.223 370.29C234.223 371.75 233.333 373.45 232.243 374.08C231.143 374.71 230.263 374.04 230.263 372.58C230.263 371.12 231.153 369.42 232.243 368.79C233.343 368.16 234.223 368.83 234.223 370.29Z" fill="#372F75" stroke="#090044" stroke-linecap="round" stroke-linejoin="round"/>
<path d="M136.893 378.84L122.593 370.46L122.753 364.92L137.053 373.29L136.893 378.84Z" fill="#372F75" stroke="#090044" stroke-linecap="round" stroke-linejoin="round"/>
<path d="M144.353 372.54L116.253 356.08C115.143 355.43 114.283 353.69 114.323 352.2L114.453 347.61C114.493 346.11 115.423 345.43 116.533 346.07L144.633 362.53C145.743 363.18 146.603 364.92 146.563 366.41L146.433 371C146.393 372.5 145.463 373.18 144.353 372.54Z" fill="#372F75" stroke="#090044" stroke-linecap="round" stroke-linejoin="round"/>
<path d="M158.713 379.3C157.123 378.66 155.313 377.83 153.503 376.77L153.543 373.91C153.593 370.65 155.503 369.06 157.963 370.11C161.293 371.54 163.883 372.15 163.883 372.15L163.843 374.63C163.783 378.47 161.593 380.47 158.713 379.31V379.3Z" fill="#FFFFF6" stroke="#090044" stroke-linecap="round" stroke-linejoin="round"/>
<path d="M160.793 386.52C160.793 386.52 157.003 385.66 153.253 383.46L153.353 380.14C157.103 382.34 160.893 383.2 160.893 383.2L160.793 386.52Z" fill="#FFFFF6" stroke="#090044" stroke-linecap="round" stroke-linejoin="round"/>
<path d="M102.963 346.65C104.493 347.83 106.233 349.08 107.993 350.11L108.073 347.27C108.163 344.04 106.433 340.31 104.063 338.54C100.853 336.14 98.383 333.79 98.383 333.79L98.313 336.26C98.203 340.07 100.183 344.51 102.953 346.66L102.963 346.65Z" fill="#FFFFF6" stroke="#090044" stroke-linecap="round" stroke-linejoin="round"/>
<path d="M162.773 378.37C161.833 379.6 160.393 379.97 158.713 379.31C157.113 378.65 155.313 377.84 153.513 376.77L153.553 373.9C153.593 371.4 154.743 369.89 156.343 369.8C155.853 370.5 155.563 371.48 155.563 372.67L155.523 375.54C157.323 376.61 159.123 377.42 160.723 378.08C161.463 378.37 162.153 378.45 162.773 378.37Z" fill="#372F75" stroke="#090044" stroke-linecap="round" stroke-linejoin="round"/>
<path d="M108.083 347.6L108.003 350.1C106.243 349.08 104.483 347.85 102.963 346.66C100.173 344.49 98.2133 340.06 98.3333 336.25L98.3733 333.79C98.3733 333.79 99.1133 334.49 100.343 335.55C100.423 339.24 102.353 343.37 104.973 345.42C105.953 346.16 107.023 346.94 108.083 347.59V347.6Z" fill="#372F75" stroke="#090044" stroke-linecap="round" stroke-linejoin="round"/>
<path d="M100.343 351.11C100.343 351.11 104.053 354.64 107.803 356.84L107.903 353.52C104.153 351.32 100.443 347.79 100.443 347.79L100.343 351.11Z" fill="#FFFFF6" stroke="#090044" stroke-linecap="round" stroke-linejoin="round"/>
<path d="M193.003 313.19L187.673 346.5L183.943 365.02L93.1631 312.62C94.2331 294.84 95.4131 278.7 96.3131 268.54C96.5631 265.47 96.7631 262.97 96.9731 261.08C97.0931 260.01 97.2231 258.99 97.4631 258.05L192.993 313.19H193.003Z" fill="#FFFFF6" stroke="#090044" stroke-linecap="round" stroke-linejoin="round"/>
<path d="M256.543 248.51V366.29L250.403 369.81V359.12C250.403 350.39 240.943 345.07 233.403 349.45C232.463 350.02 231.523 350.64 230.613 351.33C221.803 357.64 216.483 367.88 216.483 378.9V386.68C216.483 388.32 215.623 389.83 214.193 390.69L194.123 402.28V402.24C192.853 402.98 191.543 403.67 190.153 404.37C189.823 404.53 189.543 404.66 189.253 404.78C180.283 408.59 174.383 406.66 172.993 401.26C171.563 395.57 172.293 376.31 172.993 364.55H172.953C174.143 344.56 175.493 326 176.473 314.74C176.723 311.67 176.923 309.17 177.133 307.28C177.543 303.22 178.653 299.91 180.083 297.16C180.743 295.89 181.513 294.78 182.333 293.76C185.203 290.07 188.763 287.62 191.873 285.81C192.283 285.56 192.653 285.32 193.023 285.11L256.523 248.49H256.563L256.543 248.51Z" fill="#372F75" stroke="#090044" stroke-linecap="round" stroke-linejoin="round"/>
<path d="M241.263 275.57V302.81C241.263 306.35 239.373 309.61 236.313 311.38L210.903 326.06C209.423 326.91 208.193 328.14 207.333 329.61L204.433 334.57C203.573 336.05 202.333 337.27 200.853 338.13L180.013 350.14C180.953 335.06 181.943 322.73 182.553 315.24C182.803 312.25 183.073 309.8 183.213 307.91C183.213 307.86 183.213 307.8 183.223 307.75C183.573 303.36 186.193 299.47 190.013 297.27L234.423 271.63C237.463 269.88 241.253 272.07 241.253 275.58L241.263 275.57Z" fill="#5A569C" stroke="#090044" stroke-linecap="round" stroke-linejoin="round"/>
<path d="M230.253 314.89V351.33" stroke="#090044" stroke-linecap="round" stroke-linejoin="round"/>
<path d="M226.493 338.96L221.053 342.1V328.6L226.493 325.46V338.96Z" fill="#5A569C" stroke="#090044" stroke-linecap="round" stroke-linejoin="round"/>
<path d="M224.503 337.82L226.493 338.96V325.46L224.503 326.61V337.82Z" fill="#5A569C" stroke="#090044" stroke-linecap="round" stroke-linejoin="round"/>
<path d="M224.503 337.82L221.053 339.81V342.1L226.493 338.96L224.503 337.82Z" fill="#5A569C" stroke="#090044" stroke-linecap="round" stroke-linejoin="round"/>
<path d="M180.023 350.14C179.193 360.62 178.553 372.55 178.393 382.43C178.353 384.66 180.743 386.08 182.703 385L219.593 364.68" stroke="#090044" stroke-linecap="round" stroke-linejoin="round"/>
<path d="M234.003 271.86V312.71L226.503 317.04V276.19L234.003 271.86Z" fill="#372F75" stroke="#090044" stroke-linecap="round" stroke-linejoin="round"/>
<path d="M155.523 375.54L153.503 376.77" stroke="#090044" stroke-linecap="round" stroke-linejoin="round"/>
<path d="M167.153 224.01L217.933 253.32V228.73L167.153 199.47V224.01Z" fill="#FFFFF6" stroke="#090044" stroke-linecap="round" stroke-linejoin="round"/>
<path d="M241.253 239.86L217.933 253.32V228.73L241.253 215.27V239.86Z" fill="#372F75" stroke="#090044" stroke-linecap="round" stroke-linejoin="round"/>
<path d="M167.153 199.47L190.623 185.92L241.253 215.27L217.933 228.73L167.153 199.47Z" fill="#FFFFF6" stroke="#090044" stroke-linecap="round" stroke-linejoin="round"/>
<path d="M132.853 352.29L128.793 349.94C127.483 349.19 126.423 347.16 126.423 345.42V340C126.423 338.26 127.483 337.46 128.793 338.21L132.853 340.56C134.163 341.31 135.223 343.34 135.223 345.08V350.5C135.223 352.24 134.163 353.04 132.853 352.29Z" fill="#FFFFF6" stroke="#090044" stroke-linecap="round" stroke-linejoin="round"/>
<path d="M86.1729 397.57C55.9529 397.57 25.2129 368.18 18.4829 358.36C1.93289 334.24 16.4929 293.31 27.0729 282.49C27.5129 282.05 28.2329 282.04 28.6829 282.47C29.1329 282.91 29.1329 283.63 28.7029 284.08C18.5129 294.51 4.46289 333.9 20.3529 357.08C28.0129 368.25 67.5329 405.52 100.603 392.67C110.943 388.65 111.763 380.3 112.623 371.47C113.163 366 113.713 360.33 116.663 355.7C117.003 355.17 117.703 355.02 118.233 355.35C118.763 355.69 118.913 356.39 118.583 356.92C115.933 361.09 115.423 366.24 114.893 371.69C114.003 380.82 113.073 390.26 101.433 394.78C96.4529 396.72 91.3329 397.57 86.1929 397.57H86.1729Z" fill="#5A569C" stroke="#090044" stroke-linecap="round" stroke-linejoin="round"/>
<path d="M130.243 342.36C129.703 342.05 129.223 342.06 128.833 342.28L122.963 345.43C121.593 346.16 120.473 347.28 119.753 348.66L116.663 354.53C116.493 354.9 116.483 355.19 116.903 355.69C117.473 356.36 118.443 356.88 119.073 356.84C119.253 356.83 119.373 356.77 119.453 356.69L123.693 351.98C124.603 350.96 125.773 350.21 127.083 349.79L131.463 348.34C132.033 348.14 132.433 347.54 132.433 346.54C132.433 344.93 131.453 343.06 130.243 342.37V342.36Z" fill="#5A569C" stroke="#090044" stroke-linecap="round" stroke-linejoin="round"/>
</svg>
