<svg width="450" height="472" viewBox="0 0 450 472" fill="none" xmlns="http://www.w3.org/2000/svg">
<g clip-path="url(#clip0_1955_8903)">
<path d="M349.51 321.94C287.92 358.18 226.34 394.43 164.75 430.67C114.38 352.28 85.3499 255.43 80.6699 150.14C142.25 113.9 203.84 77.6499 265.43 41.4099C270.11 146.69 299.14 243.54 349.51 321.94Z" fill="#372F75" stroke="#090044" stroke-miterlimit="10"/>
<path d="M369.589 303.16C308.049 339.36 246.509 375.56 184.979 411.75C128.259 339.38 92.5092 248.89 81.4492 149.66C142.989 113.47 204.529 77.2701 266.059 41.0701C277.129 140.3 312.869 230.79 369.589 303.16Z" fill="#FFFEF6" stroke="#090044" stroke-miterlimit="10"/>
<path d="M100.048 159.06C99.3283 159.28 98.6083 159.5 97.8983 159.72C97.2883 159.9 96.9583 159.76 96.8883 159.3C96.8383 158.96 96.9383 158.6 97.1983 158.22C97.4583 157.84 97.7983 157.53 98.2583 157.26C99.1983 156.71 99.7883 156.92 100.008 157.92C100.418 157.59 100.828 157.26 101.238 156.93C101.078 156.25 100.718 155.83 100.178 155.68C99.6283 155.53 98.9383 155.7 98.0983 156.19C97.5683 156.51 97.1083 156.87 96.7283 157.3C96.3383 157.74 96.0583 158.19 95.8883 158.67C95.7183 159.15 95.6483 159.63 95.7183 160.08C95.7883 160.56 95.9583 160.9 96.2483 161.1C96.5483 161.29 96.9083 161.33 97.3883 161.18C98.1483 160.95 98.9083 160.72 99.6683 160.49C100.258 160.31 100.598 160.49 100.678 161.01C100.728 161.43 100.638 161.83 100.378 162.24C100.108 162.65 99.7283 163.01 99.2183 163.3C98.0583 163.98 97.3283 163.69 97.0283 162.43C96.6383 162.75 96.2483 163.06 95.8483 163.37C96.0983 164.19 96.5083 164.71 97.0983 164.9C97.6883 165.1 98.4283 164.92 99.2983 164.41C99.8583 164.08 100.338 163.69 100.758 163.22C101.178 162.76 101.478 162.27 101.658 161.75C101.838 161.23 101.908 160.71 101.838 160.21C101.768 159.67 101.558 159.31 101.258 159.11C100.948 158.91 100.548 158.88 100.048 159.03V159.06Z" fill="#090044"/>
<path d="M105.599 157.79C105.669 158.27 105.629 158.72 105.459 159.15C105.299 159.57 105.039 159.89 104.689 160.09C104.439 160.23 104.219 160.28 104.049 160.19C103.879 160.11 103.769 159.92 103.729 159.63C103.539 158.35 103.359 157.08 103.179 155.8C102.779 156.04 102.369 156.27 101.969 156.51C102.159 157.83 102.349 159.15 102.539 160.47C102.619 161.03 102.839 161.42 103.199 161.58C103.549 161.75 103.979 161.68 104.459 161.4C104.789 161.2 105.079 160.94 105.339 160.61C105.589 160.28 105.769 159.93 105.869 159.56C105.869 159.56 105.879 159.56 105.889 159.55C105.929 159.81 105.969 160.08 106.009 160.34L107.199 159.64C106.919 157.74 106.639 155.83 106.369 153.93C105.969 154.17 105.569 154.4 105.159 154.64C105.309 155.69 105.459 156.74 105.609 157.79H105.599Z" fill="#090044"/>
<path d="M109.978 151.65C109.658 151.84 109.358 152.11 109.098 152.44C108.838 152.77 108.658 153.12 108.568 153.49H108.548C108.508 153.24 108.468 152.98 108.438 152.71C108.038 152.94 107.648 153.18 107.248 153.41C107.518 155.32 107.798 157.22 108.078 159.12L109.288 158.41C109.128 157.36 108.978 156.32 108.828 155.27C108.758 154.78 108.798 154.33 108.968 153.91C109.128 153.49 109.398 153.17 109.738 152.97C109.988 152.83 110.198 152.79 110.378 152.87C110.548 152.95 110.648 153.15 110.698 153.43C110.878 154.71 111.068 155.98 111.258 157.26L112.468 156.55C112.278 155.23 112.078 153.92 111.888 152.6C111.808 152.03 111.588 151.66 111.238 151.49C110.888 151.32 110.458 151.39 109.978 151.67V151.65Z" fill="#090044"/>
<path d="M116.078 149.05C116.078 149.05 116.068 149.05 116.058 149.06C115.868 148.87 115.638 148.77 115.338 148.76C115.038 148.76 114.718 148.85 114.388 149.05C113.988 149.29 113.618 149.64 113.328 150.07C113.028 150.51 112.828 151.01 112.698 151.58C112.588 152.14 112.568 152.72 112.648 153.32C112.728 153.92 112.908 154.38 113.158 154.73C113.408 155.08 113.728 155.27 114.088 155.32C114.448 155.37 114.848 155.28 115.248 155.04C115.588 154.83 115.888 154.57 116.138 154.24C116.398 153.9 116.558 153.57 116.668 153.21H116.688C116.728 153.46 116.768 153.71 116.808 153.97L117.998 153.27C117.608 150.62 117.218 147.97 116.848 145.31C116.448 145.55 116.038 145.78 115.638 146.02C115.778 147.03 115.918 148.04 116.068 149.05H116.078ZM116.268 152.73C116.078 153.22 115.788 153.58 115.398 153.81C115.008 154.03 114.668 154.05 114.408 153.84C114.128 153.63 113.948 153.22 113.858 152.62C113.778 152.02 113.808 151.49 113.998 151C114.168 150.52 114.458 150.18 114.838 149.95C115.228 149.72 115.568 149.71 115.858 149.92C116.158 150.13 116.338 150.53 116.428 151.11C116.518 151.69 116.468 152.23 116.268 152.73Z" fill="#090044"/>
<path d="M121.618 145.79C121.618 145.79 121.608 145.79 121.598 145.8C121.418 145.6 121.188 145.5 120.878 145.5C120.578 145.5 120.258 145.59 119.928 145.79C119.518 146.03 119.168 146.37 118.868 146.81C118.578 147.25 118.368 147.75 118.248 148.32C118.118 148.89 118.108 149.47 118.198 150.06C118.278 150.66 118.448 151.13 118.708 151.47C118.968 151.82 119.268 152.01 119.638 152.06C119.998 152.12 120.388 152.02 120.798 151.78C121.138 151.57 121.428 151.32 121.688 150.98C121.948 150.64 122.118 150.31 122.218 149.95H122.238C122.278 150.2 122.318 150.45 122.358 150.71L123.548 150.01C123.268 148.11 122.988 146.2 122.718 144.3C122.318 144.54 121.908 144.77 121.508 145.01C121.538 145.27 121.578 145.53 121.618 145.79ZM121.808 149.47C121.618 149.96 121.328 150.32 120.938 150.55C120.548 150.78 120.218 150.78 119.948 150.58C119.678 150.36 119.478 149.97 119.398 149.36C119.298 148.77 119.348 148.22 119.538 147.74C119.708 147.27 119.998 146.91 120.378 146.69C120.778 146.46 121.108 146.45 121.398 146.66C121.698 146.86 121.878 147.27 121.968 147.85C122.048 148.43 121.988 148.98 121.808 149.47Z" fill="#090044"/>
<path d="M125.819 146.81C125.719 147.25 125.629 147.68 125.549 148.11H125.529C125.509 147.98 125.459 147.63 125.389 147.08C125.189 145.75 124.999 144.41 124.809 143.08C124.409 143.31 124.019 143.55 123.619 143.78C123.839 145.35 124.059 146.91 124.299 148.47C124.359 148.8 124.479 149.01 124.639 149.1C124.819 149.19 125.049 149.14 125.339 148.98C125.019 150.24 124.689 151.51 124.379 152.77L125.649 152.02C126.549 148.35 127.459 144.67 128.389 140.98C127.959 141.23 127.529 141.49 127.099 141.74C126.669 143.44 126.249 145.13 125.819 146.82V146.81Z" fill="#090044"/>
<path d="M133.039 136.48C132.589 136.3 132.049 136.39 131.409 136.76C130.339 137.39 129.269 138.02 128.199 138.65C128.569 141.31 128.949 143.96 129.349 146.61C129.749 146.37 130.159 146.14 130.559 145.9C130.389 144.78 130.229 143.65 130.059 142.52L132.069 141.34C132.719 140.96 133.209 140.45 133.519 139.81C133.839 139.17 133.959 138.5 133.859 137.8C133.769 137.1 133.479 136.67 133.049 136.47L133.039 136.48ZM132.499 139.51C132.349 139.83 132.119 140.08 131.809 140.26C131.169 140.64 130.529 141.02 129.889 141.39C129.779 140.62 129.669 139.85 129.559 139.07C130.199 138.69 130.839 138.31 131.479 137.94C131.799 137.75 132.049 137.72 132.249 137.83C132.459 137.94 132.589 138.16 132.639 138.51C132.689 138.86 132.639 139.19 132.489 139.51H132.499Z" fill="#090044"/>
<path d="M137.589 135.8C137.189 135.77 136.739 135.9 136.249 136.2C135.759 136.49 135.339 136.87 135.009 137.33C134.679 137.79 134.439 138.31 134.309 138.87C134.179 139.44 134.159 140.02 134.239 140.63C134.319 141.23 134.509 141.7 134.769 142.04C135.039 142.38 135.369 142.56 135.769 142.59C136.179 142.61 136.619 142.49 137.119 142.19C137.619 141.89 138.029 141.52 138.359 141.07C138.699 140.61 138.919 140.1 139.049 139.53C139.169 138.97 139.209 138.37 139.119 137.77C139.029 137.17 138.859 136.7 138.589 136.36C138.319 136.03 137.989 135.84 137.589 135.81V135.8ZM137.789 140.08C137.619 140.55 137.349 140.89 136.959 141.12C136.569 141.35 136.249 141.35 135.979 141.14C135.709 140.93 135.539 140.52 135.449 139.91C135.349 139.3 135.389 138.77 135.569 138.3C135.729 137.84 136.009 137.49 136.399 137.26C136.789 137.03 137.119 137.02 137.379 137.24C137.649 137.45 137.809 137.87 137.909 138.47C137.989 139.08 137.959 139.61 137.789 140.08Z" fill="#090044"/>
<path d="M146.809 130.14C146.389 131.81 145.969 133.48 145.549 135.15C145.449 135.55 145.389 135.96 145.339 136.39C145.339 136.39 145.329 136.39 145.319 136.4C145.289 136.07 145.259 135.77 145.219 135.5C145.069 134.48 144.919 133.47 144.779 132.46C144.739 132.12 144.609 131.91 144.439 131.82C144.249 131.74 144.029 131.78 143.729 131.95C143.379 132.16 143.029 132.36 142.669 132.57C142.249 134.24 141.829 135.91 141.409 137.58C141.329 137.94 141.249 138.35 141.199 138.82C141.199 138.82 141.189 138.82 141.179 138.83C141.159 138.49 141.119 138.19 141.079 137.93C140.879 136.57 140.679 135.21 140.489 133.84C140.099 134.07 139.699 134.3 139.309 134.53C139.529 136.09 139.749 137.65 139.989 139.21C140.039 139.54 140.149 139.75 140.339 139.84C140.529 139.92 140.759 139.89 141.049 139.72C141.389 139.52 141.729 139.32 142.069 139.12C142.479 137.46 142.889 135.8 143.309 134.13C143.389 133.8 143.489 133.36 143.569 132.84C143.569 132.84 143.579 132.84 143.589 132.83C143.629 133.21 143.649 133.52 143.689 133.73C143.829 134.75 143.979 135.76 144.129 136.77C144.179 137.1 144.289 137.31 144.479 137.4C144.659 137.49 144.899 137.45 145.189 137.28C145.529 137.08 145.869 136.88 146.209 136.68C146.809 134.26 147.419 131.83 148.029 129.41C147.629 129.65 147.219 129.89 146.809 130.13V130.14Z" fill="#090044"/>
<path d="M151.477 127.64C151.097 127.6 150.667 127.71 150.197 127.99C149.717 128.27 149.327 128.64 148.987 129.11C148.657 129.58 148.417 130.1 148.277 130.68C148.127 131.26 148.097 131.84 148.187 132.42C148.267 133 148.447 133.5 148.717 133.82C148.987 134.15 149.317 134.33 149.727 134.37C150.127 134.4 150.577 134.27 151.067 133.98C151.647 133.64 152.117 133.18 152.477 132.6C152.827 132.03 153.037 131.41 153.057 130.78C152.677 130.93 152.307 131.07 151.927 131.22C151.907 131.58 151.807 131.91 151.617 132.23C151.427 132.54 151.187 132.79 150.887 132.96C150.487 133.19 150.117 133.23 149.837 133.02C149.597 132.85 149.437 132.54 149.337 132.09C150.557 131.37 151.767 130.66 152.987 129.95C152.977 129.85 152.957 129.74 152.947 129.64C152.857 129.05 152.687 128.59 152.437 128.24C152.177 127.9 151.867 127.7 151.477 127.66V127.64ZM149.247 131.11C149.257 130.75 149.317 130.42 149.437 130.12C149.617 129.64 149.927 129.28 150.357 129.02C150.697 128.82 150.987 128.78 151.227 128.88C151.467 128.99 151.627 129.25 151.707 129.66C150.887 130.14 150.067 130.63 149.247 131.11Z" fill="#090044"/>
<path d="M155.789 124.7C155.459 124.9 155.159 125.17 154.929 125.51C154.689 125.85 154.549 126.25 154.489 126.7H154.469C154.419 126.38 154.379 126.04 154.329 125.7C153.929 125.93 153.539 126.17 153.139 126.4C153.409 128.31 153.689 130.21 153.969 132.11L155.179 131.4C155.019 130.37 154.869 129.34 154.729 128.31C154.659 127.84 154.709 127.41 154.929 127C155.129 126.6 155.449 126.27 155.879 126.02L156.169 125.85C156.109 125.43 156.049 125 155.989 124.58L155.799 124.69L155.789 124.7Z" fill="#090044"/>
<path d="M101.229 196.41C116.709 187.3 132.189 178.2 147.669 169.09Z" fill="#FFFEF6"/>
<path d="M101.229 196.41C116.709 187.3 132.189 178.2 147.669 169.09" stroke="#090044" stroke-miterlimit="10"/>
<path d="M187.109 108.06C202.589 98.95 218.069 89.85 233.549 80.74Z" fill="#FFFEF6"/>
<path d="M187.109 108.06C202.589 98.95 218.069 89.85 233.549 80.74" stroke="#090044" stroke-miterlimit="10"/>
<path d="M188.59 117.7C197.07 112.71 205.55 107.72 214.03 102.73Z" fill="#FFFEF6"/>
<path d="M188.59 117.7C197.07 112.71 205.55 107.72 214.03 102.73" stroke="#090044" stroke-miterlimit="10"/>
<path d="M190.229 127.26C201.729 120.5 213.229 113.73 224.729 106.96Z" fill="#FFFEF6"/>
<path d="M190.229 127.26C201.729 120.5 213.229 113.73 224.729 106.96" stroke="#090044" stroke-miterlimit="10"/>
<path d="M192.02 136.77C203.52 130.01 215.02 123.24 226.52 116.47Z" fill="#FFFEF6"/>
<path d="M192.02 136.77C203.52 130.01 215.02 123.24 226.52 116.47" stroke="#090044" stroke-miterlimit="10"/>
<path d="M103.27 205.8C122.09 194.73 140.91 183.66 159.73 172.59Z" fill="#FFFEF6"/>
<path d="M103.27 205.8C122.09 194.73 140.91 183.66 159.73 172.59" stroke="#090044" stroke-miterlimit="10"/>
<path d="M105.5 215.27C119.17 207.23 132.85 199.18 146.52 191.14Z" fill="#FFFEF6"/>
<path d="M105.5 215.27C119.17 207.23 132.85 199.18 146.52 191.14" stroke="#090044" stroke-miterlimit="10"/>
<path d="M159.189 350.18C213.209 318.41 267.219 286.63 321.239 254.86Z" fill="#FFFEF6"/>
<path d="M159.189 350.18C213.209 318.41 267.219 286.63 321.239 254.86" stroke="#090044" stroke-miterlimit="10"/>
<path d="M177.699 379.7C231.719 347.93 285.729 316.15 339.749 284.38Z" fill="#FFFEF6"/>
<path d="M177.699 379.7C231.719 347.93 285.729 316.15 339.749 284.38" stroke="#090044" stroke-miterlimit="10"/>
<path d="M182.318 386.37C236.338 354.6 290.348 322.82 344.368 291.05Z" fill="#FFFEF6"/>
<path d="M182.318 386.37C236.338 354.6 290.348 322.82 344.368 291.05" stroke="#090044" stroke-miterlimit="10"/>
<path d="M288.41 186.22C265.03 199.97 241.66 213.72 218.28 227.47C211.02 208.8 204.78 189.53 199.6 169.75C222.98 156 246.35 142.25 269.73 128.5C274.92 148.28 281.15 167.54 288.41 186.22Z" fill="#FFFEF6" stroke="#090044" stroke-miterlimit="10"/>
<path d="M299.9 213.44C245.88 245.21 191.87 276.99 137.85 308.76C139.44 312.25 141.08 315.71 142.75 319.16C196.77 287.39 250.78 255.61 304.8 223.84C303.13 220.4 301.5 216.93 299.9 213.44Z" fill="#FFFEF6" stroke="#090044" stroke-miterlimit="10"/>
<path d="M144.641 232.74C146.311 237.97 143.761 244.5 138.871 247.38C133.991 250.25 128.591 248.39 126.931 243.16C125.271 237.93 127.981 231.31 132.861 228.43C137.751 225.55 142.971 227.51 144.641 232.74Z" fill="#F2FF80" stroke="#090044" stroke-miterlimit="10"/>
<path d="M131.229 222.82C130.739 221.1 130.259 219.38 129.789 217.65Z" fill="#FFFEF6"/>
<path d="M131.229 222.82C130.739 221.1 130.259 219.38 129.789 217.65" stroke="#090044" stroke-miterlimit="10"/>
<path d="M122.599 233.11C121.119 232.56 119.649 232 118.189 231.45Z" fill="#FFFEF6"/>
<path d="M122.599 233.11C121.119 232.56 119.649 232 118.189 231.45" stroke="#090044" stroke-miterlimit="10"/>
<path d="M121.75 246.2C120.17 247.13 118.59 248.06 117 248.99Z" fill="#FFFEF6"/>
<path d="M121.75 246.2C120.17 247.13 118.59 248.06 117 248.99" stroke="#090044" stroke-miterlimit="10"/>
<path d="M129.339 254.34C128.629 256.18 127.909 258.02 127.199 259.86Z" fill="#FFFEF6"/>
<path d="M129.339 254.34C128.629 256.18 127.909 258.02 127.199 259.86" stroke="#090044" stroke-miterlimit="10"/>
<path d="M140.76 252.85C141.34 254.52 141.94 256.18 142.53 257.84Z" fill="#FFFEF6"/>
<path d="M140.76 252.85C141.34 254.52 141.94 256.18 142.53 257.84" stroke="#090044" stroke-miterlimit="10"/>
<path d="M149.18 242.67C150.7 243.2 152.23 243.72 153.76 244.24Z" fill="#FFFEF6"/>
<path d="M149.18 242.67C150.7 243.2 152.23 243.72 153.76 244.24" stroke="#090044" stroke-miterlimit="10"/>
<path d="M149.82 229.69C151.4 228.76 152.98 227.83 154.57 226.9Z" fill="#FFFEF6"/>
<path d="M149.82 229.69C151.4 228.76 152.98 227.83 154.57 226.9" stroke="#090044" stroke-miterlimit="10"/>
<path d="M142.449 221.43C143.209 219.56 143.979 217.69 144.749 215.82Z" fill="#FFFEF6"/>
<path d="M142.449 221.43C143.209 219.56 143.979 217.69 144.749 215.82" stroke="#090044" stroke-miterlimit="10"/>
<path d="M131.229 222.82C130.739 221.1 130.259 219.38 129.789 217.65Z" fill="#FFFEF6"/>
<path d="M131.229 222.82C130.739 221.1 130.259 219.38 129.789 217.65" stroke="#090044" stroke-miterlimit="10"/>
<path d="M122.599 233.11C121.119 232.56 119.649 232 118.189 231.45Z" fill="#FFFEF6"/>
<path d="M122.599 233.11C121.119 232.56 119.649 232 118.189 231.45" stroke="#090044" stroke-miterlimit="10"/>
<path d="M121.75 246.2C120.17 247.13 118.59 248.06 117 248.99Z" fill="#FFFEF6"/>
<path d="M121.75 246.2C120.17 247.13 118.59 248.06 117 248.99" stroke="#090044" stroke-miterlimit="10"/>
<path d="M129.339 254.34C128.629 256.18 127.909 258.02 127.199 259.86Z" fill="#FFFEF6"/>
<path d="M129.339 254.34C128.629 256.18 127.909 258.02 127.199 259.86" stroke="#090044" stroke-miterlimit="10"/>
<path d="M140.76 252.85C141.34 254.52 141.94 256.18 142.53 257.84Z" fill="#FFFEF6"/>
<path d="M140.76 252.85C141.34 254.52 141.94 256.18 142.53 257.84" stroke="#090044" stroke-miterlimit="10"/>
<path d="M149.18 242.67C150.7 243.2 152.23 243.72 153.76 244.24Z" fill="#FFFEF6"/>
<path d="M149.18 242.67C150.7 243.2 152.23 243.72 153.76 244.24" stroke="#090044" stroke-miterlimit="10"/>
<path d="M149.82 229.69C151.4 228.76 152.98 227.83 154.57 226.9Z" fill="#FFFEF6"/>
<path d="M149.82 229.69C151.4 228.76 152.98 227.83 154.57 226.9" stroke="#090044" stroke-miterlimit="10"/>
<path d="M142.449 221.43C143.209 219.56 143.979 217.69 144.749 215.82Z" fill="#FFFEF6"/>
<path d="M142.449 221.43C143.209 219.56 143.979 217.69 144.749 215.82" stroke="#090044" stroke-miterlimit="10"/>
</g>
<defs>
<clipPath id="clip0_1955_8903">
<rect width="290.56" height="391.55" fill="white" transform="translate(80 40)"/>
</clipPath>
</defs>
</svg>
