<svg viewBox="0 0 895.2 1054.5" xmlns="http://www.w3.org/2000/svg"><g stroke="#090044" stroke-linecap="round" stroke-linejoin="round"><path d="m365.7 522.9v200.6 330.5l518.5-299.3v-330.6-200.6z" fill="#372f75"/><path d="m514.3 769.4 7.2 4.1-111.3 64.3v-8.3z" fill="#5a569c"/><path d="m514.3 769.4 7.2 4.1v-44.7l-7.2 4.2z" fill="#5a569c"/><path d="m511.4 734.7-47.6 27.5-1.9 1.1-51.7 29.8v33 3.4l50.6-29.2 3-1.7 50.5-29.2v-36.4z" fill="#5a569c"/><path d="m462.3 763v36.4" fill="#5a569c"/><path d="m11 318.1v200.6 330.6l354.7 204.7v-330.5-200.6z" fill="#fffef6"/><path d="m87.8 681.2-7.2 4.2 215.5 124.4v-8.4z" fill="#fffef6"/><path d="m87.8 681.2-7.2 4.2v-44.7l7.2 4.1z" fill="#372f75"/><path d="m296.1 765v36.4l-50.6-29.2-3-1.7-50.5-29.2-50.6-29.2-3-1.7-50.5-29.2v-36.4l2.9 1.7 47.6 27.5 3 1.7 50.6 29.2 3 1.8 47.5 27.4 3 1.7z" fill="#fffef6"/><path d="m676.2 675.9 7.2 4.2-111.3 64.2v-8.3z" fill="#5a569c"/><path d="m676.2 675.9 7.2 4.2v-44.8l-7.2 4.2z" fill="#5a569c"/><path d="m673.2 641.2-47.6 27.5-1.9 1.1-51.6 29.8v33 3.4l50.6-29.2 2.9-1.7 50.6-29.2v-36.4z" fill="#5a569c"/><path d="m624.1 669.6v36.4" fill="#5a569c"/><path d="m838.3 582.3 7.2 4.2-111.3 64.3v-8.3z" fill="#5a569c"/><path d="m838.3 582.3 7.2 4.2v-44.7l-7.2 4.1z" fill="#5a569c"/><path d="m835.3 547.7-47.6 27.4-1.9 1.1-51.6 29.9v32.9 3.4l50.5-29.1 3-1.8 50.6-29.1v-36.4z" fill="#5a569c"/><path d="m786.2 576v36.4" fill="#5a569c"/><path d="m244.4 735.2v36.4" fill="#fffef6"/><path d="m193.7 742.3v-36.4" fill="#fffef6"/><path d="m140.1 711.4v-36.4" fill="#fffef6"/><path d="m514.3 559.3 7.2 4.2-111.3 64.2v-8.3z" fill="#5a569c"/><path d="m514.3 559.3 7.2 4.2v-44.8l-7.2 4.2z" fill="#5a569c"/><path d="m511.4 524.6-47.6 27.5-1.9 1.1-51.7 29.8v33 3.4l50.6-29.2 3-1.7 50.5-29.2v-36.4z" fill="#5a569c"/><path d="m462.3 553v36.4" fill="#5a569c"/><path d="m87.8 471.2-7.2 4.1 215.5 124.4v-8.3z" fill="#fffef6"/><path d="m87.8 471.2-7.2 4.1v-44.7l7.2 4.2z" fill="#372f75"/><path d="m296.1 555v36.4l-50.6-29.2-3-1.7-50.5-29.2-50.6-29.2-3-1.7-50.5-29.2v-36.4l2.9 1.7 47.6 27.5 3 1.7 50.6 29.2 3 1.7 47.5 27.5 3 1.7z" fill="#fffef6"/><path d="m676.2 465.8 7.2 4.2-111.3 64.3v-8.3z" fill="#5a569c"/><path d="m676.2 465.8 7.2 4.2v-44.7l-7.2 4.1z" fill="#5a569c"/><path d="m673.2 431.2-47.6 27.4-1.9 1.1-51.6 29.9v32.9 3.4l50.6-29.1 2.9-1.8 50.6-29.1v-36.4z" fill="#5a569c"/><path d="m624.1 459.5v36.4" fill="#5a569c"/><path d="m838.3 372.3 7.2 4.1-111.3 64.3v-8.3z" fill="#5a569c"/><path d="m838.3 372.3 7.2 4.1v-44.7l-7.2 4.2z" fill="#5a569c"/><path d="m835.3 337.6-47.6 27.5-1.9 1.1-51.6 29.8v33 3.4l50.5-29.2 3-1.7 50.6-29.2v-36.4z" fill="#5a569c"/><path d="m786.2 365.9v36.5" fill="#5a569c"/><path d="m244.4 525.1v36.4" fill="#fffef6"/><path d="m193.7 532.3v-36.4" fill="#fffef6"/><path d="m140.1 501.3v-36.4" fill="#fffef6"/><path d="m127.1 783.9 111.7 65.1v131.7l-111.7-64.6z" fill="#372f75"/><path d="m511 970.1.1-90.6-78.8 45.6v90.5z" fill="#090044"/><path d="m410.2 1028 11.2 6.4v-115.3l-11.2-6.4z" fill="#5a569c"/><path d="m511 970.1 10.9 6.3v-115.3l-10.9-6.2z" fill="#5a569c"/><path d="m421.4 919.1v12.2 103.1l10.9-6.3v-103l89.6-51.8v103.1l10.8-6.3v-103-12.2z" fill="#372f75"/><path d="m532.7 854.9-10.8 18.4" fill="#372f75"/><path d="m432.3 925.1-10.9-6" fill="#372f75"/><path d="m521.5 848.4 11.2 6.5-111.3 64.2-11.2-6.4z" fill="#5a569c"/><path d="m673 877.1.1-90.6-78.9 45.6v90.5z" fill="#090044"/><path d="m572.2 934.9 11.2 6.5v-115.3l-11.2-6.4z" fill="#5a569c"/><path d="m673 877.1 10.8 6.3v-115.3l-10.8-6.3z" fill="#5a569c"/><path d="m583.4 826.1v12.2 103.1l10.8-6.3v-103l89.6-51.8v103.1l10.9-6.3v-103.1-12.2z" fill="#372f75"/><path d="m694.7 761.8-10.9 18.5" fill="#372f75"/><path d="m594.2 832.1-10.8-6" fill="#372f75"/><path d="m683.5 755.4 11.2 6.4-111.3 64.3-11.2-6.4z" fill="#5a569c"/><path d="m834.8 784.1.1-90.6-78.9 45.5v90.6z" fill="#090044"/><path d="m734 841.9 11.2 6.5v-115.3l-11.2-6.5z" fill="#5a569c"/><path d="m834.8 784.1 10.8 6.3v-115.3l-10.8-6.3z" fill="#5a569c"/><path d="m745.2 733.1v12.2 103.1l10.8-6.3v-103.1l89.6-51.7v103.1l10.9-6.3v-103.1-12.2z" fill="#372f75"/><path d="m856.5 668.8-10.9 18.5" fill="#372f75"/><path d="m756 739-10.8-5.9" fill="#372f75"/><path d="m845.3 662.4 11.2 6.4-111.3 64.3-11.2-6.5z" fill="#5a569c"/><path d="m190.3 844.8 28.1 16.2 1.1.7 30.5 17.6v19.5 2l-29.9-17.3-1.7-1-29.9-17.2v-21.5z" fill="#fffef6"/><path d="m219.2 861.5v21.5" fill="#fffff6"/><path d="m128.8 809.4 28.1 16.2 1.1.6 30.5 17.6v19.5 2l-29.8-17.2-1.8-1-29.8-17.3v-21.5z" fill="#fffef6"/><path d="m157.8 826.1v21.5" fill="#fffff6"/><path d="m261.2 993.7-11.2 6.4v-157.5l11.2-6.5z" fill="#372f75"/><path d="m127.1 916.1-10.9 6.3v-144.8l10.9 6.3z" fill="#372f75"/><path d="m115.8 752.2-10.8 6.7 145 83.7 11.2-6.5z" fill="#fffef6"/><path d="m246.6 840.6-130.4-75.2-11.2-6.5v157l11.2 6.5v-144.6l122.6 71.2v144.7l11.2 6.4v-157.5z" fill="#fffef6"/><path d="m116.2 777.8-11.2-18.9" fill="#fffef6"/><path d="m238.8 849 11.2-6.4" fill="#fffef6"/><path d="m529.5 18.8 354.7 204.7-518.5 299.4-354.7-204.8z" fill="#fffef6"/><path d="m529.5 27.5 341.9 197.3 2.3-13.4-344.2-198.7z" fill="#fffef6"/><path d="m529.5 27.5-507.6 293.1-.3-14.7 507.9-293.2z" fill="#372f75"/><path d="m894.7 238.3-529 305.4v-26.9l529-305.4z" fill="#372f75"/><path d="m.5 305.9 529-305.4 365.2 210.9-524.8 303-4.2 2.4zm529-293.2-507.9 293.2 344.1 198.7 508-293.3z" fill="#fffef6"/><path d="m375 468.4 180.5-104.3-151.3 25-29.2 76.6" fill="#5a569c"/><path d="m112.9 317.4 53.2 30.7 89.4-71.4-142.6 35.4z" fill="#372f75"/><path d="m346.7 238.5-144.5 7.5 53.3 30.8 91.2-33z" fill="#372f75"/><path d="m112.9 312.1 53.2 30.7 89.4-71.4-53.3-30.7z" fill="#372f75"/><g fill="#f2ff80"><path d="m215.7 280.6 12 6.9c1.7-.2 2.7-.4 4.4-.6l16.8-13.4c0-1.2.1-1.8.2-3l-12-6.9c-1.7.2-2.7.4-4.4.6l-16.8 13.4c0 1.2-.1 1.8-.2 3z"/><path d="m199.5 271.3 12 6.9c1.7-.2 2.7-.4 4.4-.6l16.8-13.4c0-1.2.1-1.8.2-3l-12-6.9c-1.7.2-2.7.4-4.4.6l-16.8 13.4c0 1.2-.1 1.8-.2 3z"/><path d="m183.3 261.9 12 6.9c1.7-.2 2.7-.4 4.4-.6l16.8-13.4c0-1.2.1-1.8.2-3l-12-6.9c-1.7.2-2.7.4-4.4.6l-16.8 13.4z"/><path d="m194.3 297.6 12 6.9c1.7-.2 2.7-.4 4.4-.6l16.8-13.4.2-3-12-6.9c-1.7.2-2.7.4-4.4.6l-16.8 13.4c0 1.2-.1 1.8-.2 3z"/><path d="m178.2 288.3 12 6.9c1.7-.2 2.7-.4 4.4-.6l16.8-13.4c0-1.2.1-1.8.2-3l-12-6.9c-1.7.2-2.7.4-4.4.6l-16.8 13.4c0 1.2-.1 1.8-.2 3z"/><path d="m162 279 12 6.9c1.7-.2 2.7-.4 4.4-.6l16.8-13.4c0-1.2.1-1.8.2-3l-12-6.9c-1.7.2-2.7.4-4.4.6l-16.8 13.4c0 1.2-.1 1.8-.2 3z"/><path d="m173 314.7 12 6.9c1.7-.2 2.7-.4 4.4-.6l16.8-13.4c0-1.2.1-1.8.2-3l-12-6.9c-1.7.2-2.7.4-4.4.6l-16.8 13.4c0 1.2-.1 1.8-.2 3z"/><path d="m156.8 305.4 12 6.9c1.7-.2 2.7-.4 4.4-.6l16.8-13.4c0-1.2.1-1.8.2-3l-12-6.9c-1.7.2-2.7.4-4.4.6l-16.8 13.4c0 1.2-.1 1.8-.2 3z"/><path d="m140.6 296 12 6.9c1.7-.2 2.7-.4 4.4-.6l16.8-13.4.2-3-12-6.9c-1.7.2-2.7.4-4.4.6l-16.8 13.4z"/><path d="m151.7 331.7 12 6.9c1.7-.2 2.7-.4 4.4-.6l16.8-13.4c0-1.2.1-1.8.2-3l-12-6.9c-1.7.2-2.7.4-4.4.6l-16.8 13.4c0 1.2-.1 1.8-.2 3z"/><path d="m135.5 322.4 12 6.9c1.7-.2 2.7-.4 4.4-.6l16.8-13.4c0-1.2.1-1.8.2-3l-12-6.9c-1.7.2-2.7.4-4.4.6l-16.8 13.4c0 1.2-.1 1.8-.2 3z"/><path d="m119.3 313.1 12 6.9c1.7-.2 2.7-.4 4.4-.6l16.8-13.4c0-1.2.1-1.8.2-3l-12-6.9c-1.7.2-2.7.4-4.4.6l-16.8 13.4c0 1.2-.1 1.8-.2 3z"/></g><path d="m202.2 240.7 53.3 30.8 91.2-33-53.3-30.8z" fill="#372f75"/><path d="m306.4 237.6 12 6.9c1.7.1 2.7.2 4.4.4l17.1-6.2c0-.8.1-1.2.2-2l-12-6.9c-1.7-.1-2.7-.2-4.4-.4l-17.1 6.2c0 .8-.1 1.2-.2 2z" fill="#f2ff80"/><path d="m290.2 228.3 12 6.9c1.7.1 2.7.2 4.4.4l17.1-6.2c0-.8.1-1.2.2-2l-12-6.9c-1.7-.1-2.7-.2-4.4-.4l-17.1 6.2c0 .8-.1 1.2-.2 2z" fill="#f2ff80"/><path d="m274 218.9 12 6.9c1.7.1 2.7.2 4.4.4l17.1-6.2c0-.8.1-1.2.2-2l-12-6.9c-1.7-.1-2.7-.2-4.4-.4l-17.1 6.2c0 .8-.1 1.2-.2 2z" fill="#f2ff80"/><path d="m284.6 245.5 12 6.9c1.7.1 2.7.2 4.4.4l17.1-6.2c0-.8.1-1.2.2-2l-12-6.9c-1.7-.1-2.7-.2-4.4-.4l-17.1 6.2c0 .8-.1 1.2-.2 2z" fill="#f2ff80"/><path d="m268.4 236.1 12 6.9c1.7.1 2.7.2 4.4.4l17.1-6.2c0-.8.1-1.2.2-2l-12-6.9c-1.7-.1-2.7-.2-4.4-.4l-17.1 6.2c0 .8-.1 1.2-.2 2z" fill="#f2ff80"/><path d="m252.3 226.8 12 6.9c1.7.1 2.7.2 4.4.4l17.1-6.2c0-.8.1-1.2.2-2l-12-6.9c-1.7-.1-2.7-.2-4.4-.4l-17.1 6.2c0 .8-.1 1.2-.2 2z" fill="#f2ff80"/><path d="m262.9 253.3 12 6.9c1.7.1 2.7.2 4.4.4l17.1-6.2c0-.8.1-1.2.2-2l-12-6.9c-1.7-.1-2.7-.2-4.4-.4l-17.1 6.2c0 .8-.1 1.2-.2 2z" fill="#f2ff80"/><path d="m246.7 244 12 6.9c1.7.1 2.7.2 4.4.4l17.1-6.2c0-.8.1-1.2.2-2l-12-6.9c-1.7-.1-2.7-.2-4.4-.4l-17.1 6.2c0 .8-.1 1.2-.2 2z" fill="#f2ff80"/><path d="m230.5 234.7 12 6.9c1.7.1 2.7.2 4.4.4l17.1-6.2c0-.8.1-1.2.2-2l-12-6.9c-1.7-.1-2.7-.2-4.4-.4l-17.1 6.2c0 .8-.1 1.2-.2 2z" fill="#f2ff80"/><path d="m241.1 261.2 12 6.9c1.7.1 2.7.2 4.4.4l17.1-6.2c0-.8.1-1.2.2-2l-12-6.9c-1.7-.1-2.7-.2-4.4-.4l-17.1 6.2c0 .8-.1 1.2-.2 2z" fill="#f2ff80"/><path d="m224.9 251.9 12 6.9c1.7.1 2.7.2 4.4.4l17.1-6.2c0-.8.1-1.2.2-2l-12-6.9c-1.7-.1-2.7-.2-4.4-.4l-17.1 6.2c0 .8-.1 1.2-.2 2z" fill="#f2ff80"/><path d="m208.7 242.5 12 6.9c1.7.1 2.7.2 4.4.4l17.1-6.2c0-.8.1-1.2.2-2l-12-6.9c-1.7-.1-2.7-.2-4.4-.4l-17.1 6.2c0 .8-.1 1.2-.2 2z" fill="#f2ff80"/><path d="m165.1 347.5 53.2 30.7 89.4-71.4-142.6 35.4z" fill="#372f75"/><path d="m398.9 268.6-144.4 7.5 53.2 30.7 91.2-32.9z" fill="#372f75"/><path d="m165.1 342.2 53.2 30.7 89.4-71.4-53.2-30.7z" fill="#372f75"/><path d="m267.9 310.7 12 6.9c1.7-.2 2.7-.4 4.4-.6l16.8-13.4c0-1.2.1-1.8.2-3l-12-6.9c-1.7.2-2.7.4-4.4.6l-16.8 13.4c0 1.2-.1 1.8-.2 3z" fill="#f2ff80"/><path d="m251.7 301.3 12 6.9c1.7-.2 2.7-.4 4.4-.6l16.8-13.4c0-1.2.1-1.8.2-3l-12-6.9c-1.7.2-2.7.4-4.4.6l-16.8 13.4c0 1.2-.1 1.8-.2 3z" fill="#f2ff80"/><path d="m235.6 292 12 6.9c1.7-.2 2.7-.4 4.4-.6l16.8-13.4c0-1.2.1-1.8.2-3l-12-6.9c-1.7.2-2.7.4-4.4.6l-16.8 13.4c0 1.2-.1 1.8-.2 3z" fill="#f2ff80"/><path d="m246.6 327.7 12 6.9c1.7-.2 2.7-.4 4.4-.6l16.8-13.4c0-1.2.1-1.8.2-3l-12-6.9c-1.7.2-2.7.4-4.4.6l-16.8 13.4c0 1.2-.1 1.8-.2 3z" fill="#f2ff80"/><path d="m230.4 318.4 12 6.9c1.7-.2 2.7-.4 4.4-.6l16.8-13.4c0-1.2.1-1.8.2-3l-12-6.9c-1.7.2-2.7.4-4.4.6l-16.8 13.4c0 1.2-.1 1.8-.2 3z" fill="#f2ff80"/><path d="m214.2 309 12 6.9c1.7-.2 2.7-.4 4.4-.6l16.8-13.4c0-1.2.1-1.8.2-3l-12-6.9c-1.7.2-2.7.4-4.4.6l-16.8 13.4c0 1.2-.1 1.8-.2 3z" fill="#f2ff80"/><path d="m225.2 344.8 12 6.9c1.7-.2 2.7-.4 4.4-.6l16.8-13.4c0-1.2.1-1.8.2-3l-12-6.9c-1.7.2-2.7.4-4.4.6l-16.8 13.4c0 1.2-.1 1.8-.2 3z" fill="#f2ff80"/><path d="m209 335.4 12 6.9c1.7-.2 2.7-.4 4.4-.6l16.8-13.4c0-1.2.1-1.8.2-3l-12-6.9c-1.7.2-2.7.4-4.4.6l-16.8 13.4z" fill="#f2ff80"/><path d="m192.9 326.1 12 6.9c1.7-.2 2.7-.4 4.4-.6l16.8-13.4c0-1.2.1-1.8.2-3l-12-6.9c-1.7.2-2.7.4-4.4.6l-16.8 13.4c0 1.2-.1 1.8-.2 3z" fill="#f2ff80"/><path d="m203.9 361.8 12 6.9c1.7-.2 2.7-.4 4.4-.6l16.8-13.4c0-1.2.1-1.8.2-3l-12-6.9c-1.7.2-2.7.4-4.4.6l-16.8 13.4c0 1.2-.1 1.8-.2 3z" fill="#f2ff80"/><path d="m187.7 352.5 12 6.9c1.7-.2 2.7-.4 4.4-.6l16.8-13.4c0-1.2.1-1.8.2-3l-12-6.9c-1.7.2-2.7.4-4.4.6l-16.8 13.4c0 1.2-.1 1.8-.2 3z" fill="#f2ff80"/><path d="m171.5 343.1 12 6.9c1.7-.2 2.7-.4 4.4-.6l16.8-13.4c0-1.2.1-1.8.2-3l-12-6.9c-1.7.2-2.7.4-4.4.6l-16.8 13.4c0 1.2-.1 1.8-.2 3z" fill="#f2ff80"/><path d="m254.5 270.8 53.2 30.7 91.2-32.9-53.3-30.8z" fill="#372f75"/><path d="m358.6 267.7 12 6.9c1.7.1 2.7.2 4.4.4l17.1-6.2c0-.8.1-1.2.2-2l-12-6.9c-1.7-.1-2.7-.2-4.4-.4l-17.1 6.2c0 .8-.1 1.2-.2 2z" fill="#f2ff80"/><path d="m342.4 258.3 12 6.9c1.7.1 2.7.2 4.4.4l17.1-6.2c0-.8.1-1.2.2-2l-12-6.9c-1.7-.1-2.7-.2-4.4-.4l-17.1 6.2c0 .8-.1 1.2-.2 2z" fill="#f2ff80"/><path d="m326.3 249 12 6.9c1.7.1 2.7.2 4.4.4l17.1-6.2c0-.8.1-1.2.2-2l-12-6.9c-1.7-.1-2.7-.2-4.4-.4l-17.1 6.2c0 .8-.1 1.2-.2 2z" fill="#f2ff80"/><path d="m336.8 275.5 12 6.9c1.7.1 2.7.2 4.4.4l17.1-6.2c0-.8.1-1.2.2-2l-12-6.9c-1.7-.1-2.7-.2-4.4-.4l-17.1 6.2c0 .8-.1 1.2-.2 2z" fill="#f2ff80"/><path d="m320.7 266.2 12 6.9c1.7.1 2.7.2 4.4.4l17.1-6.2c0-.8.1-1.2.2-2l-12-6.9c-1.7-.1-2.7-.2-4.4-.4l-17.1 6.2c0 .8-.1 1.2-.2 2z" fill="#f2ff80"/><path d="m304.5 256.9 12 6.9c1.7.1 2.7.2 4.4.4l17.1-6.2c0-.8.1-1.2.2-2l-12-6.9c-1.7-.1-2.7-.2-4.4-.4l-17.1 6.2c0 .8-.1 1.2-.2 2z" fill="#f2ff80"/><path d="m315.1 283.4 12 6.9c1.7.1 2.7.2 4.4.4l17.1-6.2c0-.8.1-1.2.2-2l-12-6.9c-1.7-.1-2.7-.2-4.4-.4l-17.1 6.2c0 .8-.1 1.2-.2 2z" fill="#f2ff80"/><path d="m298.9 274.1 12 6.9c1.7.1 2.7.2 4.4.4l17.1-6.2c0-.8.1-1.2.2-2l-12-6.9c-1.7-.1-2.7-.2-4.4-.4l-17.1 6.2c0 .8-.1 1.2-.2 2z" fill="#f2ff80"/><path d="m282.7 264.7 12 6.9c1.7.1 2.7.2 4.4.4l17.1-6.2c0-.8.1-1.2.2-2l-12-6.9c-1.7-.1-2.7-.2-4.4-.4l-17.1 6.2c0 .8-.1 1.2-.2 2z" fill="#f2ff80"/><path d="m293.3 291.3 12 6.9c1.7.1 2.7.2 4.4.4l17.1-6.2c0-.8.1-1.2.2-2l-12-6.9c-1.7-.1-2.7-.2-4.4-.4l-17.1 6.2z" fill="#f2ff80"/><path d="m277.1 281.9 12 6.9c1.7.1 2.7.2 4.4.4l17.1-6.2c0-.8.1-1.2.2-2l-12-6.9c-1.7-.1-2.7-.2-4.4-.4l-17.1 6.2c0 .8-.1 1.2-.2 2z" fill="#f2ff80"/><path d="m261 272.6 12 6.9c1.7.1 2.7.2 4.4.4l17.1-6.2c0-.8.1-1.2.2-2l-12-6.9c-1.7-.1-2.7-.2-4.4-.4l-17.1 6.2c0 .8-.1 1.2-.2 2z" fill="#f2ff80"/><path d="m217.3 377.5 53.2 30.8 89.4-71.4-142.6 35.3z" fill="#372f75"/><path d="m451.1 298.6-144.4 7.5 53.2 30.8 91.2-33z" fill="#372f75"/><path d="m217.3 372.2 53.2 30.8 89.4-71.4-53.2-30.8z" fill="#372f75"/><path d="m320.1 340.7 12 6.9c1.7-.2 2.7-.4 4.4-.6l16.8-13.4c0-1.2.1-1.8.2-3l-12-6.9c-1.7.2-2.7.4-4.4.6l-16.8 13.4c0 1.2-.1 1.8-.2 3z" fill="#f2ff80"/><path d="m304 331.4 12 6.9c1.7-.2 2.7-.4 4.4-.6l16.8-13.4c0-1.2.1-1.8.2-3l-12-6.9c-1.7.2-2.7.4-4.4.6l-16.8 13.4z" fill="#f2ff80"/><path d="m287.8 322.1 12 6.9c1.7-.2 2.7-.4 4.4-.6l16.8-13.4c0-1.2.1-1.8.2-3l-12-6.9c-1.7.2-2.7.4-4.4.6l-16.8 13.4c0 1.2-.1 1.8-.2 3z" fill="#f2ff80"/><path d="m298.8 357.8 12 6.9c1.7-.2 2.7-.4 4.4-.6l16.8-13.4.2-3-12-6.9c-1.7.2-2.7.4-4.4.6l-16.8 13.4c0 1.2-.1 1.8-.2 3z" fill="#f2ff80"/><path d="m282.6 348.4 12 6.9c1.7-.2 2.7-.4 4.4-.6l16.8-13.4c0-1.2.1-1.8.2-3l-12-6.9c-1.7.2-2.7.4-4.4.6l-16.8 13.4c0 1.2-.1 1.8-.2 3z" fill="#f2ff80"/><path d="m266.4 339.1 12 6.9c1.7-.2 2.7-.4 4.4-.6l16.8-13.4c0-1.2.1-1.8.2-3l-12-6.9c-1.7.2-2.7.4-4.4.6l-16.8 13.4z" fill="#f2ff80"/><path d="m277.4 374.8 12 6.9c1.7-.2 2.7-.4 4.4-.6l16.8-13.4c0-1.2.1-1.8.2-3l-12-6.9c-1.7.2-2.7.4-4.4.6l-16.8 13.4c0 1.2-.1 1.8-.2 3z" fill="#f2ff80"/><path d="m261.3 365.5 12 6.9c1.7-.2 2.7-.4 4.4-.6l16.8-13.4c0-1.2.1-1.8.2-3l-12-6.9c-1.7.2-2.7.4-4.4.6l-16.8 13.4c0 1.2-.1 1.8-.2 3z" fill="#f2ff80"/><path d="m245.1 356.2 12 6.9c1.7-.2 2.7-.4 4.4-.6l16.8-13.4c0-1.2.1-1.8.2-3l-12-6.9c-1.7.2-2.7.4-4.4.6l-16.8 13.4c0 1.2-.1 1.8-.2 3z" fill="#f2ff80"/><path d="m256.1 391.9 12 6.9c1.7-.2 2.7-.4 4.4-.6l16.8-13.4c0-1.2.1-1.8.2-3l-12-6.9c-1.7.2-2.7.4-4.4.6l-16.8 13.4c0 1.2-.1 1.8-.2 3z" fill="#f2ff80"/><path d="m239.9 382.6 12 6.9c1.7-.2 2.7-.4 4.4-.6l16.8-13.4c0-1.2.1-1.8.2-3l-12-6.9c-1.7.2-2.7.4-4.4.6l-16.8 13.4c0 1.2-.1 1.8-.2 3z" fill="#f2ff80"/><path d="m223.7 373.2 12 6.9c1.7-.2 2.7-.4 4.4-.6l16.8-13.4c0-1.2.1-1.8.2-3l-12-6.9c-1.7.2-2.7.4-4.4.6l-16.8 13.4c0 1.2-.1 1.8-.2 3z" fill="#f2ff80"/><path d="m306.7 300.8 53.2 30.8 91.2-33-53.3-30.7z" fill="#372f75"/><path d="m410.8 297.7 12 6.9c1.7.1 2.7.2 4.4.4l17.1-6.2c0-.8.1-1.2.2-2l-12-6.9c-1.7-.1-2.7-.2-4.4-.4l-17.1 6.2c0 .8-.1 1.2-.2 2z" fill="#f2ff80"/><path d="m394.6 288.4 12 6.9c1.7.1 2.7.2 4.4.4l17.1-6.2c0-.8.1-1.2.2-2l-12-6.9c-1.7-.1-2.7-.2-4.4-.4l-17.1 6.2c0 .8-.1 1.2-.2 2z" fill="#f2ff80"/><path d="m378.5 279.1 12 6.9c1.7.1 2.7.2 4.4.4l17.1-6.2c0-.8.1-1.2.2-2l-12-6.9c-1.7-.1-2.7-.2-4.4-.4l-17.1 6.2c0 .8-.1 1.2-.2 2z" fill="#f2ff80"/><path d="m389.1 305.6 12 6.9c1.7.1 2.7.2 4.4.4l17.1-6.2c0-.8.1-1.2.2-2l-12-6.9c-1.7-.1-2.7-.2-4.4-.4l-17.1 6.2c0 .8-.1 1.2-.2 2z" fill="#f2ff80"/><path d="m372.9 296.3 12 6.9c1.7.1 2.7.2 4.4.4l17.1-6.2c0-.8.1-1.2.2-2l-12-6.9c-1.7-.1-2.7-.2-4.4-.4l-17.1 6.2c0 .8-.1 1.2-.2 2z" fill="#f2ff80"/><path d="m356.7 286.9 12 6.9c1.7.1 2.7.2 4.4.4l17.1-6.2c0-.8.1-1.2.2-2l-12-6.9c-1.7-.1-2.7-.2-4.4-.4l-17.1 6.2c0 .8-.1 1.2-.2 2z" fill="#f2ff80"/><path d="m367.3 313.5 12 6.9c1.7.1 2.7.2 4.4.4l17.1-6.2c0-.8.1-1.2.2-2l-12-6.9c-1.7-.1-2.7-.2-4.4-.4l-17.1 6.2c0 .8-.1 1.2-.2 2z" fill="#f2ff80"/><path d="m351.1 304.1 12 6.9c1.7.1 2.7.2 4.4.4l17.1-6.2.2-2-12-6.9c-1.7-.1-2.7-.2-4.4-.4l-17.1 6.2c0 .8-.1 1.2-.2 2z" fill="#f2ff80"/><path d="m334.9 294.8 12 6.9c1.7.1 2.7.2 4.4.4l17.1-6.2c0-.8.1-1.2.2-2l-12-6.9c-1.7-.1-2.7-.2-4.4-.4l-17.1 6.2c0 .8-.1 1.2-.2 2z" fill="#f2ff80"/><path d="m345.5 321.4 12 6.9c1.7.1 2.7.2 4.4.4l17.1-6.2c0-.8.1-1.2.2-2l-12-6.9c-1.7-.1-2.7-.2-4.4-.4l-17.1 6.2c0 .8-.1 1.2-.2 2z" fill="#f2ff80"/><path d="m329.4 312 12 6.9c1.7.1 2.7.2 4.4.4l17.1-6.2c0-.8.1-1.2.2-2l-12-6.9c-1.7-.1-2.7-.2-4.4-.4l-17.1 6.2c0 .8-.1 1.2-.2 2z" fill="#f2ff80"/><path d="m313.2 302.7 12 6.9c1.7.1 2.7.2 4.4.4l17.1-6.2c0-.8.1-1.2.2-2l-12-6.9c-1.7-.1-2.7-.2-4.4-.4l-17.1 6.2c0 .8-.1 1.2-.2 2z" fill="#f2ff80"/><path d="m269.5 407.6 53.3 30.8 89.3-71.4-142.6 35.3z" fill="#372f75"/><path d="m503.3 328.7-144.4 7.5 53.3 30.8 91.1-33z" fill="#372f75"/><path d="m269.5 402.3 53.3 30.8 89.3-71.4-53.2-30.8z" fill="#372f75"/><path d="m372.3 370.8 12 6.9c1.7-.2 2.7-.4 4.4-.6l16.8-13.4c0-1.2.1-1.8.2-3l-12-6.9c-1.7.2-2.7.4-4.4.6l-16.8 13.4c0 1.2-.1 1.8-.2 3z" fill="#f2ff80"/><path d="m356.2 361.5 12 6.9c1.7-.2 2.7-.4 4.4-.6l16.8-13.4c0-1.2.1-1.8.2-3l-12-6.9c-1.7.2-2.7.4-4.4.6l-16.8 13.4c0 1.2-.1 1.8-.2 3z" fill="#f2ff80"/><path d="m340 352.1 12 6.9c1.7-.2 2.7-.4 4.4-.6l16.8-13.4c0-1.2.1-1.8.2-3l-12-6.9c-1.7.2-2.7.4-4.4.6l-16.8 13.4c0 1.2-.1 1.8-.2 3z" fill="#f2ff80"/><path d="m351 387.9 12 6.9c1.7-.2 2.7-.4 4.4-.6l16.8-13.4c0-1.2.1-1.8.2-3l-12-6.9c-1.7.2-2.7.4-4.4.6l-16.8 13.4c0 1.2-.1 1.8-.2 3z" fill="#f2ff80"/><path d="m334.8 378.5 12 6.9c1.7-.2 2.7-.4 4.4-.6l16.8-13.4c0-1.2.1-1.8.2-3l-12-6.9c-1.7.2-2.7.4-4.4.6l-16.8 13.4c0 1.2-.1 1.8-.2 3z" fill="#f2ff80"/><path d="m318.7 369.2 12 6.9c1.7-.2 2.7-.4 4.4-.6l16.8-13.4c0-1.2.1-1.8.2-3l-12-6.9c-1.7.2-2.7.4-4.4.6l-16.8 13.4c0 1.2-.1 1.8-.2 3z" fill="#f2ff80"/><path d="m329.7 404.9 12 6.9c1.7-.2 2.7-.4 4.4-.6l16.8-13.4c0-1.2.1-1.8.2-3l-12-6.9c-1.7.2-2.7.4-4.4.6l-16.8 13.4c0 1.2-.1 1.8-.2 3z" fill="#f2ff80"/><path d="m313.5 395.6 12 6.9c1.7-.2 2.7-.4 4.4-.6l16.8-13.4.2-3-12-6.9c-1.7.2-2.7.4-4.4.6l-16.8 13.4c0 1.2-.1 1.8-.2 3z" fill="#f2ff80"/><path d="m297.3 386.2 12 6.9c1.7-.2 2.7-.4 4.4-.6l16.8-13.4.2-3-12-6.9c-1.7.2-2.7.4-4.4.6l-16.8 13.4c0 1.2-.1 1.8-.2 3z" fill="#f2ff80"/><path d="m308.3 422 12 6.9c1.7-.2 2.7-.4 4.4-.6l16.8-13.4c0-1.2.1-1.8.2-3l-12-6.9c-1.7.2-2.7.4-4.4.6l-16.8 13.4c0 1.2-.1 1.8-.2 3z" fill="#f2ff80"/><path d="m292.1 412.6 12 6.9c1.7-.2 2.7-.4 4.4-.6l16.8-13.4c0-1.2.1-1.8.2-3l-12-6.9c-1.7.2-2.7.4-4.4.6l-16.8 13.4c0 1.2-.1 1.8-.2 3z" fill="#f2ff80"/><path d="m276 403.3 12 6.9c1.7-.2 2.7-.4 4.4-.6l16.8-13.4c0-1.2.1-1.8.2-3l-12-6.9c-1.7.2-2.7.4-4.4.6l-16.8 13.4c0 1.2-.1 1.8-.2 3z" fill="#f2ff80"/><path d="m358.9 330.9 53.3 30.8 91.1-33-53.3-30.8z" fill="#372f75"/><path d="m463 327.8 12 6.9c1.7.1 2.7.2 4.4.4l17.1-6.2c0-.8.1-1.2.2-2l-12-6.9c-1.7-.1-2.7-.2-4.4-.4l-17.1 6.2c0 .8-.1 1.2-.2 2z" fill="#f2ff80"/><path d="m446.9 318.5 12 6.9c1.7.1 2.7.2 4.4.4l17.1-6.2c0-.8.1-1.2.2-2l-12-6.9c-1.7-.1-2.7-.2-4.4-.4l-17.1 6.2c0 .8-.1 1.2-.2 2z" fill="#f2ff80"/><path d="m430.7 309.1 12 6.9c1.7.1 2.7.2 4.4.4l17.1-6.2c0-.8.1-1.2.2-2l-12-6.9c-1.7-.1-2.7-.2-4.4-.4l-17.1 6.2c0 .8-.1 1.2-.2 2z" fill="#f2ff80"/><path d="m441.3 335.7 12 6.9c1.7.1 2.7.2 4.4.4l17.1-6.2c0-.8.1-1.2.2-2l-12-6.9c-1.7-.1-2.7-.2-4.4-.4l-17.1 6.2c0 .8-.1 1.2-.2 2z" fill="#f2ff80"/><path d="m425.1 326.3 12 6.9c1.7.1 2.7.2 4.4.4l17.1-6.2c0-.8.1-1.2.2-2l-12-6.9c-1.7-.1-2.7-.2-4.4-.4l-17.1 6.2c0 .8-.1 1.2-.2 2z" fill="#f2ff80"/><path d="m408.9 317 12 6.9c1.7.1 2.7.2 4.4.4l17.1-6.2c0-.8.1-1.2.2-2l-12-6.9c-1.7-.1-2.7-.2-4.4-.4l-17.1 6.2c0 .8-.1 1.2-.2 2z" fill="#f2ff80"/><path d="m419.5 343.6 12 6.9c1.7.1 2.7.2 4.4.4l17.1-6.2c0-.8.1-1.2.2-2l-12-6.9c-1.7-.1-2.7-.2-4.4-.4l-17.1 6.2c0 .8-.1 1.2-.2 2z" fill="#f2ff80"/><path d="m403.3 334.2 12 6.9c1.7.1 2.7.2 4.4.4l17.1-6.2c0-.8.1-1.2.2-2l-12-6.9c-1.7-.1-2.7-.2-4.4-.4l-17.1 6.2c0 .8-.1 1.2-.2 2z" fill="#f2ff80"/><path d="m387.2 324.9 12 6.9c1.7.1 2.7.2 4.4.4l17.1-6.2c0-.8.1-1.2.2-2l-12-6.9c-1.7-.1-2.7-.2-4.4-.4l-17.1 6.2c0 .8-.1 1.2-.2 2z" fill="#f2ff80"/><path d="m397.7 351.4 12 6.9c1.7.1 2.7.2 4.4.4l17.1-6.2c0-.8.1-1.2.2-2l-12-6.9c-1.7-.1-2.7-.2-4.4-.4l-17.1 6.2c0 .8-.1 1.2-.2 2z" fill="#f2ff80"/><path d="m381.6 342.1 12 6.9c1.7.1 2.7.2 4.4.4l17.1-6.2c0-.8.1-1.2.2-2l-12-6.9c-1.7-.1-2.7-.2-4.4-.4l-17.1 6.2c0 .8-.1 1.2-.2 2z" fill="#f2ff80"/><path d="m365.4 332.7 12 6.9c1.7.1 2.7.2 4.4.4l17.1-6.2c0-.8.1-1.2.2-2l-12-6.9c-1.7-.1-2.7-.2-4.4-.4l-17.1 6.2c0 .8-.1 1.2-.2 2z" fill="#f2ff80"/><path d="m321.7 437.7 53.3 30.7 89.4-71.4-3.3-11.6-139.4 47z" fill="#372f75"/><path d="m555.5 358.8-144.4 7.5 53.3 30.7 91.1-32.9z" fill="#372f75"/><path d="m321.7 432.4 53.3 30.7 89.4-71.4-53.3-30.7z" fill="#372f75"/><path d="m424.6 400.9 12 6.9c1.7-.2 2.7-.4 4.4-.6l16.8-13.4c0-1.2.1-1.8.2-3l-12-6.9c-1.7.2-2.7.4-4.4.6l-16.8 13.4c0 1.2-.1 1.8-.2 3z" fill="#f2ff80"/><path d="m408.4 391.5 12 6.9c1.7-.2 2.7-.4 4.4-.6l16.8-13.4.2-3-12-6.9c-1.7.2-2.7.4-4.4.6l-16.8 13.4c0 1.2-.1 1.8-.2 3z" fill="#f2ff80"/><path d="m392.2 382.2 12 6.9c1.7-.2 2.7-.4 4.4-.6l16.8-13.4c0-1.2.1-1.8.2-3l-12-6.9c-1.7.2-2.7.4-4.4.6l-16.8 13.4c0 1.2-.1 1.8-.2 3z" fill="#f2ff80"/><path d="m403.2 417.9 12 6.9c1.7-.2 2.7-.4 4.4-.6l16.8-13.4c0-1.2.1-1.8.2-3l-12-6.9c-1.7.2-2.7.4-4.4.6l-16.8 13.4c0 1.2-.1 1.8-.2 3z" fill="#f2ff80"/><path d="m387 408.6 12 6.9c1.7-.2 2.7-.4 4.4-.6l16.8-13.4c0-1.2.1-1.8.2-3l-12-6.9c-1.7.2-2.7.4-4.4.6l-16.8 13.4z" fill="#f2ff80"/><path d="m370.9 399.3 12 6.9c1.7-.2 2.7-.4 4.4-.6l16.8-13.4c0-1.2.1-1.8.2-3l-12-6.9c-1.7.2-2.7.4-4.4.6l-16.8 13.4z" fill="#f2ff80"/><path d="m381.9 435 12 6.9c1.7-.2 2.7-.4 4.4-.6l16.8-13.4c0-1.2.1-1.8.2-3l-12-6.9c-1.7.2-2.7.4-4.4.6l-16.8 13.4c0 1.2-.1 1.8-.2 3z" fill="#f2ff80"/><path d="m365.7 425.6 12 6.9c1.7-.2 2.7-.4 4.4-.6l16.8-13.4c0-1.2.1-1.8.2-3l-12-6.9c-1.7.2-2.7.4-4.4.6l-16.8 13.4c0 1.2-.1 1.8-.2 3z" fill="#f2ff80"/><path d="m349.5 416.3 12 6.9c1.7-.2 2.7-.4 4.4-.6l16.8-13.4c0-1.2.1-1.8.2-3l-12-6.9c-1.7.2-2.7.4-4.4.6l-16.8 13.4c0 1.2-.1 1.8-.2 3z" fill="#f2ff80"/><path d="m360.5 452 12 6.9c1.7-.2 2.7-.4 4.4-.6l16.8-13.4c0-1.2.1-1.8.2-3l-12-6.9c-1.7.2-2.7.4-4.4.6l-16.8 13.4c0 1.2-.1 1.8-.2 3z" fill="#f2ff80"/><path d="m344.4 442.7 12 6.9c1.7-.2 2.7-.4 4.4-.6l16.8-13.4c0-1.2.1-1.8.2-3l-12-6.9c-1.7.2-2.7.4-4.4.6l-16.8 13.4c0 1.2-.1 1.8-.2 3z" fill="#f2ff80"/><path d="m328.2 433.4 12 6.9c1.7-.2 2.7-.4 4.4-.6l16.8-13.4c0-1.2.1-1.8.2-3l-12-6.9c-1.7.2-2.7.4-4.4.6l-16.8 13.4c0 1.2-.1 1.8-.2 3z" fill="#f2ff80"/><path d="m411.1 361 53.3 30.7 91.1-32.9-53.2-30.8z" fill="#372f75"/><path d="m515.3 357.9 12 6.9c1.7.1 2.7.2 4.4.4l17.1-6.2c0-.8.1-1.2.2-2l-12-6.9c-1.7-.1-2.7-.2-4.4-.4l-17.1 6.2c0 .8-.1 1.2-.2 2z" fill="#f2ff80"/><path d="m499.1 348.5 12 6.9c1.7.1 2.7.2 4.4.4l17.1-6.2c0-.8.1-1.2.2-2l-12-6.9c-1.7-.1-2.7-.2-4.4-.4l-17.1 6.2z" fill="#f2ff80"/><path d="m482.9 339.2 12 6.9c1.7.1 2.7.2 4.4.4l17.1-6.2c0-.8.1-1.2.2-2l-12-6.9c-1.7-.1-2.7-.2-4.4-.4l-17.1 6.2c0 .8-.1 1.2-.2 2z" fill="#f2ff80"/><path d="m493.5 365.8 12 6.9c1.7.1 2.7.2 4.4.4l17.1-6.2c0-.8.1-1.2.2-2l-12-6.9c-1.7-.1-2.7-.2-4.4-.4l-17.1 6.2c0 .8-.1 1.2-.2 2z" fill="#f2ff80"/><path d="m477.3 356.4 12 6.9c1.7.1 2.7.2 4.4.4l17.1-6.2c0-.8.1-1.2.2-2l-12-6.9c-1.7-.1-2.7-.2-4.4-.4l-17.1 6.2c0 .8-.1 1.2-.2 2z" fill="#f2ff80"/><path d="m461.1 347.1 12 6.9c1.7.1 2.7.2 4.4.4l17.1-6.2c0-.8.1-1.2.2-2l-12-6.9c-1.7-.1-2.7-.2-4.4-.4l-17.1 6.2c0 .8-.1 1.2-.2 2z" fill="#f2ff80"/><path d="m471.7 373.6 12 6.9c1.7.1 2.7.2 4.4.4l17.1-6.2c0-.8.1-1.2.2-2l-12-6.9c-1.7-.1-2.7-.2-4.4-.4l-17.1 6.2c0 .8-.1 1.2-.2 2z" fill="#f2ff80"/><path d="m455.6 364.3 12 6.9c1.7.1 2.7.2 4.4.4l17.1-6.2c0-.8.1-1.2.2-2l-12-6.9c-1.7-.1-2.7-.2-4.4-.4l-17.1 6.2c0 .8-.1 1.2-.2 2z" fill="#f2ff80"/><path d="m439.4 354.9 12 6.9c1.7.1 2.7.2 4.4.4l17.1-6.2c0-.8.1-1.2.2-2l-12-6.9c-1.7-.1-2.7-.2-4.4-.4l-17.1 6.2c0 .8-.1 1.2-.2 2z" fill="#f2ff80"/><path d="m450 381.5 12 6.9c1.7.1 2.7.2 4.4.4l17.1-6.2c0-.8.1-1.2.2-2l-12-6.9c-1.7-.1-2.7-.2-4.4-.4l-17.1 6.2c0 .8-.1 1.2-.2 2z" fill="#f2ff80"/><path d="m433.8 372.2 12 6.9c1.7.1 2.7.2 4.4.4l17.1-6.2c0-.8.1-1.2.2-2l-12-6.9c-1.7-.1-2.7-.2-4.4-.4l-17.1 6.2c0 .8-.1 1.2-.2 2z" fill="#f2ff80"/><path d="m417.6 362.8 12 6.9c1.7.1 2.7.2 4.4.4l17.1-6.2c0-.8.1-1.2.2-2l-12-6.9c-1.7-.1-2.7-.2-4.4-.4l-17.1 6.2c0 .8-.1 1.2-.2 2z" fill="#f2ff80"/><path d="m603.3 336.5 180.6-104.3-206 4.6z" fill="#5a569c"/><path d="m341.2 185.5 53.3 30.7 89.3-71.4-142.6 35.4z" fill="#372f75"/><path d="m575 106.6-144.4 7.5 53.3 30.7 91.1-32.9z" fill="#372f75"/><path d="m341.2 180.2 53.3 30.7 89.3-71.4-53.2-30.7z" fill="#372f75"/><path d="m444 148.7 12 6.9c1.7-.2 2.7-.4 4.4-.6l16.8-13.4c0-1.2.1-1.8.2-3l-12-6.9c-1.7.2-2.7.4-4.4.6l-16.8 13.4c0 1.2-.1 1.8-.2 3z" fill="#f2ff80"/><path d="m427.9 139.3 12 6.9c1.7-.2 2.7-.4 4.4-.6l16.8-13.4c0-1.2.1-1.8.2-3l-12-6.9c-1.7.2-2.7.4-4.4.6l-16.8 13.4c0 1.2-.1 1.8-.2 3z" fill="#f2ff80"/><path d="m411.7 130 12 6.9c1.7-.2 2.7-.4 4.4-.6l16.8-13.4.2-3-12-6.9c-1.7.2-2.7.4-4.4.6l-16.8 13.4c0 1.2-.1 1.8-.2 3z" fill="#f2ff80"/><path d="m422.7 165.7 12 6.9c1.7-.2 2.7-.4 4.4-.6l16.8-13.4c0-1.2.1-1.8.2-3l-12-6.9-4.4.6-16.8 13.4c0 1.2-.1 1.8-.2 3z" fill="#f2ff80"/><path d="m406.5 156.4 12 6.9c1.7-.2 2.7-.4 4.4-.6l16.8-13.4c0-1.2.1-1.8.2-3l-12-6.9c-1.7.2-2.7.4-4.4.6l-16.8 13.4c0 1.2-.1 1.8-.2 3z" fill="#f2ff80"/><path d="m390.3 147.1 12 6.9c1.7-.2 2.7-.4 4.4-.6l16.8-13.4c0-1.2.1-1.8.2-3l-12-6.9c-1.7.2-2.7.4-4.4.6l-16.8 13.4c0 1.2-.1 1.8-.2 3z" fill="#f2ff80"/><path d="m401.4 182.8 12 6.9c1.7-.2 2.7-.4 4.4-.6l16.8-13.4.2-3-12-6.9c-1.7.2-2.7.4-4.4.6l-16.8 13.4c0 1.2-.1 1.8-.2 3z" fill="#f2ff80"/><path d="m385.2 173.5 12 6.9c1.7-.2 2.7-.4 4.4-.6l16.8-13.4c0-1.2.1-1.8.2-3l-12-6.9c-1.7.2-2.7.4-4.4.6l-16.8 13.4c0 1.2-.1 1.8-.2 3z" fill="#f2ff80"/><path d="m369 164.1 12 6.9c1.7-.2 2.7-.4 4.4-.6l16.8-13.4c0-1.2.1-1.8.2-3l-12-6.9c-1.7.2-2.7.4-4.4.6l-16.8 13.4c0 1.2-.1 1.8-.2 3z" fill="#f2ff80"/><path d="m380 199.8 12 6.9c1.7-.2 2.7-.4 4.4-.6l16.8-13.4c0-1.2.1-1.8.2-3l-12-6.9c-1.7.2-2.7.4-4.4.6l-16.8 13.4c0 1.2-.1 1.8-.2 3z" fill="#f2ff80"/><path d="m363.8 190.5 12 6.9c1.7-.2 2.7-.4 4.4-.6l16.8-13.4c0-1.2.1-1.8.2-3l-12-6.9c-1.7.2-2.7.4-4.4.6l-16.8 13.4c0 1.2-.1 1.8-.2 3z" fill="#f2ff80"/><path d="m347.7 181.2 12 6.9c1.7-.2 2.7-.4 4.4-.6l16.8-13.4c0-1.2.1-1.8.2-3l-12-6.9c-1.7.2-2.7.4-4.4.6l-16.8 13.4c0 1.2-.1 1.8-.2 3z" fill="#f2ff80"/><path d="m430.6 108.8 53.3 30.7 91.1-32.9-53.3-30.8z" fill="#372f75"/><path d="m534.7 105.7 12 6.9c1.7.1 2.7.2 4.4.4l17.1-6.2c0-.8.1-1.2.2-2l-12-6.9c-1.7-.1-2.7-.2-4.4-.4l-17.1 6.2c0 .8-.1 1.2-.2 2z" fill="#f2ff80"/><path d="m518.6 96.3 12 6.9c1.7.1 2.7.2 4.4.4l17.1-6.2c0-.8.1-1.2.2-2l-12-6.9c-1.7-.1-2.7-.2-4.4-.4l-17.1 6.2c0 .8-.1 1.2-.2 2z" fill="#f2ff80"/><path d="m502.4 87 12 6.9c1.7.1 2.7.2 4.4.4l17.1-6.2c0-.8.1-1.2.2-2l-12-6.9c-1.7-.1-2.7-.2-4.4-.4l-17.1 6.2c0 .8-.1 1.2-.2 2z" fill="#f2ff80"/><path d="m513 113.6 12 6.9c1.7.1 2.7.2 4.4.4l17.1-6.2c0-.8.1-1.2.2-2l-12-6.9c-1.7-.1-2.7-.2-4.4-.4l-17.1 6.2c0 .8-.1 1.2-.2 2z" fill="#f2ff80"/><path d="m496.8 104.2 12 6.9c1.7.1 2.7.2 4.4.4l17.1-6.2c0-.8.1-1.2.2-2l-12-6.9c-1.7-.1-2.7-.2-4.4-.4l-17.1 6.2c0 .8-.1 1.2-.2 2z" fill="#f2ff80"/><path d="m480.6 94.9 12 6.9c1.7.1 2.7.2 4.4.4l17.1-6.2c0-.8.1-1.2.2-2l-12-6.9c-1.7-.1-2.7-.2-4.4-.4l-17.1 6.2z" fill="#f2ff80"/><path d="m491.2 121.4 12 6.9c1.7.1 2.7.2 4.4.4l17.1-6.2c0-.8.1-1.2.2-2l-12-6.9c-1.7-.1-2.7-.2-4.4-.4l-17.1 6.2c0 .8-.1 1.2-.2 2z" fill="#f2ff80"/><path d="m475 112.1 12 6.9c1.7.1 2.7.2 4.4.4l17.1-6.2.2-2-12-6.9c-1.7-.1-2.7-.2-4.4-.4l-17.1 6.2c0 .8-.1 1.2-.2 2z" fill="#f2ff80"/><path d="m458.9 102.7 12 6.9c1.7.1 2.7.2 4.4.4l17.1-6.2c0-.8.1-1.2.2-2l-12-6.9c-1.7-.1-2.7-.2-4.4-.4l-17.1 6.2c0 .8-.1 1.2-.2 2z" fill="#f2ff80"/><path d="m469.4 129.3 12 6.9c1.7.1 2.7.2 4.4.4l17.1-6.2c0-.8.1-1.2.2-2l-12-6.9c-1.7-.1-2.7-.2-4.4-.4l-17.1 6.2c0 .8-.1 1.2-.2 2z" fill="#f2ff80"/><path d="m453.3 120 12 6.9c1.7.1 2.7.2 4.4.4l17.1-6.2c0-.8.1-1.2.2-2l-12-6.9c-1.7-.1-2.7-.2-4.4-.4l-17.1 6.2c0 .8-.1 1.2-.2 2z" fill="#f2ff80"/><path d="m437.1 110.6 12 6.9c1.7.1 2.7.2 4.4.4l17.1-6.2c0-.8.1-1.2.2-2l-12-6.9c-1.7-.1-2.7-.2-4.4-.4l-17.1 6.2c0 .8-.1 1.2-.2 2z" fill="#f2ff80"/><path d="m393.4 215.6 53.3 30.7 89.4-71.4-142.7 35.4z" fill="#372f75"/><path d="m627.2 136.7-144.4 7.5 53.3 30.7 91.1-32.9z" fill="#372f75"/><path d="m393.4 210.3 53.3 30.7 89.4-71.4-53.3-30.7z" fill="#372f75"/><path d="m496.3 178.8 12 6.9c1.7-.2 2.7-.4 4.4-.6l16.8-13.4.2-3-12-6.9c-1.7.2-2.7.4-4.4.6l-16.8 13.4c0 1.2-.1 1.8-.2 3z" fill="#f2ff80"/><path d="m480.1 169.4 12 6.9c1.7-.2 2.7-.4 4.4-.6l16.8-13.4.2-3-12-6.9c-1.7.2-2.7.4-4.4.6l-16.8 13.4c0 1.2-.1 1.8-.2 3z" fill="#f2ff80"/><path d="m463.9 160.1 12 6.9c1.7-.2 2.7-.4 4.4-.6l16.8-13.4c0-1.2.1-1.8.2-3l-12-6.9c-1.7.2-2.7.4-4.4.6l-16.8 13.4c0 1.2-.1 1.8-.2 3z" fill="#f2ff80"/><path d="m474.9 195.8 12 6.9c1.7-.2 2.7-.4 4.4-.6l16.8-13.4c0-1.2.1-1.8.2-3l-12-6.9c-1.7.2-2.7.4-4.4.6l-16.8 13.4z" fill="#f2ff80"/><path d="m458.7 186.5 12 6.9c1.7-.2 2.7-.4 4.4-.6l16.8-13.4c0-1.2.1-1.8.2-3l-12-6.9c-1.7.2-2.7.4-4.4.6l-16.8 13.4c0 1.2-.1 1.8-.2 3z" fill="#f2ff80"/><path d="m442.6 177.1 12 6.9c1.7-.2 2.7-.4 4.4-.6l16.8-13.4c0-1.2.1-1.8.2-3l-12-6.9c-1.7.2-2.7.4-4.4.6l-16.8 13.4c0 1.2-.1 1.8-.2 3z" fill="#f2ff80"/><path d="m453.6 212.9 12 6.9c1.7-.2 2.7-.4 4.4-.6l16.8-13.4.2-3-12-6.9c-1.7.2-2.7.4-4.4.6l-16.8 13.4c0 1.2-.1 1.8-.2 3z" fill="#f2ff80"/><path d="m437.4 203.5 12 6.9c1.7-.2 2.7-.4 4.4-.6l16.8-13.4c0-1.2.1-1.8.2-3l-12-6.9c-1.7.2-2.7.4-4.4.6l-16.8 13.4c0 1.2-.1 1.8-.2 3z" fill="#f2ff80"/><path d="m421.2 194.2 12 6.9c1.7-.2 2.7-.4 4.4-.6l16.8-13.4.2-3-12-6.9c-1.7.2-2.7.4-4.4.6l-16.8 13.4z" fill="#f2ff80"/><path d="m432.2 229.9 12 6.9c1.7-.2 2.7-.4 4.4-.6l16.8-13.4c0-1.2.1-1.8.2-3l-12-6.9c-1.7.2-2.7.4-4.4.6l-16.8 13.4z" fill="#f2ff80"/><path d="m416.1 220.6 12 6.9c1.7-.2 2.7-.4 4.4-.6l16.8-13.4.2-3-12-6.9c-1.7.2-2.7.4-4.4.6l-16.8 13.4c0 1.2-.1 1.8-.2 3z" fill="#f2ff80"/><path d="m399.9 211.2 12 6.9c1.7-.2 2.7-.4 4.4-.6l16.8-13.4c0-1.2.1-1.8.2-3l-12-6.9c-1.7.2-2.7.4-4.4.6l-16.8 13.4c0 1.2-.1 1.8-.2 3z" fill="#f2ff80"/><path d="m482.8 138.9 53.3 30.7 91.1-32.9-53.2-30.8z" fill="#372f75"/><path d="m587 135.8 12 6.9c1.7.1 2.7.2 4.4.4l17.1-6.2c0-.8.1-1.2.2-2l-12-6.9c-1.7-.1-2.7-.2-4.4-.4l-17.1 6.2c0 .8-.1 1.2-.2 2z" fill="#f2ff80"/><path d="m570.8 126.4 12 6.9c1.7.1 2.7.2 4.4.4l17.1-6.2c0-.8.1-1.2.2-2l-12-6.9c-1.7-.1-2.7-.2-4.4-.4l-17.1 6.2z" fill="#f2ff80"/><path d="m554.6 117.1 12 6.9c1.7.1 2.7.2 4.4.4l17.1-6.2c0-.8.1-1.2.2-2l-12-6.9c-1.7-.1-2.7-.2-4.4-.4l-17.1 6.2c0 .8-.1 1.2-.2 2z" fill="#f2ff80"/><path d="m565.2 143.6 12 6.9 4.4.4 17.1-6.2c0-.8.1-1.2.2-2l-12-6.9c-1.7-.1-2.7-.2-4.4-.4l-17.1 6.2c0 .8-.1 1.2-.2 2z" fill="#f2ff80"/><path d="m549 134.3 12 6.9c1.7.1 2.7.2 4.4.4l17.1-6.2c0-.8.1-1.2.2-2l-12-6.9c-1.7-.1-2.7-.2-4.4-.4l-17.1 6.2c0 .8-.1 1.2-.2 2z" fill="#f2ff80"/><path d="m532.8 124.9 12 6.9c1.7.1 2.7.2 4.4.4l17.1-6.2c0-.8.1-1.2.2-2l-12-6.9c-1.7-.1-2.7-.2-4.4-.4l-17.1 6.2c0 .8-.1 1.2-.2 2z" fill="#f2ff80"/><path d="m543.4 151.5 12 6.9c1.7.1 2.7.2 4.4.4l17.1-6.2c0-.8.1-1.2.2-2l-12-6.9c-1.7-.1-2.7-.2-4.4-.4l-17.1 6.2c0 .8-.1 1.2-.2 2z" fill="#f2ff80"/><path d="m527.3 142.2 12 6.9c1.7.1 2.7.2 4.4.4l17.1-6.2c0-.8.1-1.2.2-2l-12-6.9c-1.7-.1-2.7-.2-4.4-.4l-17.1 6.2c0 .8-.1 1.2-.2 2z" fill="#f2ff80"/><path d="m511.1 132.8 12 6.9c1.7.1 2.7.2 4.4.4l17.1-6.2c0-.8.1-1.2.2-2l-12-6.9c-1.7-.1-2.7-.2-4.4-.4l-17.1 6.2c0 .8-.1 1.2-.2 2z" fill="#f2ff80"/><path d="m521.7 159.4 12 6.9c1.7.1 2.7.2 4.4.4l17.1-6.2.2-2-12-6.9c-1.7-.1-2.7-.2-4.4-.4l-17.1 6.2c0 .8-.1 1.2-.2 2z" fill="#f2ff80"/><path d="m505.5 150 12 6.9c1.7.1 2.7.2 4.4.4l17.1-6.2c0-.8.1-1.2.2-2l-12-6.9c-1.7-.1-2.7-.2-4.4-.4l-17.1 6.2c0 .8-.1 1.2-.2 2z" fill="#f2ff80"/><path d="m489.3 140.7 12 6.9c1.7.1 2.7.2 4.4.4l17.1-6.2.2-2-12-6.9c-1.7-.1-2.7-.2-4.4-.4l-17.1 6.2c0 .8-.1 1.2-.2 2z" fill="#f2ff80"/><path d="m445.6 245.6 53.3 30.8 89.4-71.4-142.7 35.3z" fill="#372f75"/><path d="m679.4 166.7-144.4 7.5 53.3 30.8 91.1-33z" fill="#372f75"/><path d="m445.6 240.3 53.3 30.8 89.4-71.4-53.3-30.8z" fill="#372f75"/><path d="m548.5 208.8 12 6.9c1.7-.2 2.7-.4 4.4-.6l16.8-13.4.2-3-12-6.9c-1.7.2-2.7.4-4.4.6l-16.8 13.4c0 1.2-.1 1.8-.2 3z" fill="#f2ff80"/><path d="m532.3 199.5 12 6.9c1.7-.2 2.7-.4 4.4-.6l16.8-13.4c0-1.2.1-1.8.2-3l-12-6.9c-1.7.2-2.7.4-4.4.6l-16.8 13.4z" fill="#f2ff80"/><path d="m516.1 190.2 12 6.9c1.7-.2 2.7-.4 4.4-.6l16.8-13.4c0-1.2.1-1.8.2-3l-12-6.9c-1.7.2-2.7.4-4.4.6l-16.8 13.4c0 1.2-.1 1.8-.2 3z" fill="#f2ff80"/><path d="m527.1 225.9 12 6.9c1.7-.2 2.7-.4 4.4-.6l16.8-13.4.2-3-12-6.9c-1.7.2-2.7.4-4.4.6l-16.8 13.4c0 1.2-.1 1.8-.2 3z" fill="#f2ff80"/><path d="m511 216.5 12 6.9c1.7-.2 2.7-.4 4.4-.6l16.8-13.4.2-3-12-6.9c-1.7.2-2.7.4-4.4.6l-16.8 13.4c0 1.2-.1 1.8-.2 3z" fill="#f2ff80"/><path d="m494.8 207.2 12 6.9c1.7-.2 2.7-.4 4.4-.6l16.8-13.4c0-1.2.1-1.8.2-3l-12-6.9c-1.7.2-2.7.4-4.4.6l-16.8 13.4z" fill="#f2ff80"/><path d="m505.8 242.9 12 6.9c1.7-.2 2.7-.4 4.4-.6l16.8-13.4c0-1.2.1-1.8.2-3l-12-6.9c-1.7.2-2.7.4-4.4.6l-16.8 13.4c0 1.2-.1 1.8-.2 3z" fill="#f2ff80"/><path d="m489.6 233.6 12 6.9c1.7-.2 2.7-.4 4.4-.6l16.8-13.4c0-1.2.1-1.8.2-3l-12-6.9c-1.7.2-2.7.4-4.4.6l-16.8 13.4z" fill="#f2ff80"/><path d="m473.4 224.3 12 6.9c1.7-.2 2.7-.4 4.4-.6l16.8-13.4c0-1.2.1-1.8.2-3l-12-6.9c-1.7.2-2.7.4-4.4.6l-16.8 13.4c0 1.2-.1 1.8-.2 3z" fill="#f2ff80"/><path d="m484.4 260 12 6.9c1.7-.2 2.7-.4 4.4-.6l16.8-13.4c0-1.2.1-1.8.2-3l-12-6.9c-1.7.2-2.7.4-4.4.6l-16.8 13.4c0 1.2-.1 1.8-.2 3z" fill="#f2ff80"/><path d="m468.3 250.6 12 6.9c1.7-.2 2.7-.4 4.4-.6l16.8-13.4c0-1.2.1-1.8.2-3l-12-6.9c-1.7.2-2.7.4-4.4.6l-16.8 13.4c0 1.2-.1 1.8-.2 3z" fill="#f2ff80"/><path d="m452.1 241.3 12 6.9c1.7-.2 2.7-.4 4.4-.6l16.8-13.4c0-1.2.1-1.8.2-3l-12-6.9c-1.7.2-2.7.4-4.4.6l-16.8 13.4c0 1.2-.1 1.8-.2 3z" fill="#f2ff80"/><path d="m535 168.9 53.3 30.8 91.1-33-53.2-30.7z" fill="#372f75"/><path d="m639.2 165.8 12 6.9c1.7.1 2.7.2 4.4.4l17.1-6.2c0-.8.1-1.2.2-2l-12-6.9c-1.7-.1-2.7-.2-4.4-.4l-17.1 6.2c0 .8-.1 1.2-.2 2z" fill="#f2ff80"/><path d="m623 156.5 12 6.9c1.7.1 2.7.2 4.4.4l17.1-6.2c0-.8.1-1.2.2-2l-12-6.9c-1.7-.1-2.7-.2-4.4-.4l-17.1 6.2c0 .8-.1 1.2-.2 2z" fill="#f2ff80"/><path d="m606.8 147.1 12 6.9c1.7.1 2.7.2 4.4.4l17.1-6.2c0-.8.1-1.2.2-2l-12-6.9c-1.7-.1-2.7-.2-4.4-.4l-17.1 6.2c0 .8-.1 1.2-.2 2z" fill="#f2ff80"/><path d="m617.4 173.7 12 6.9c1.7.1 2.7.2 4.4.4l17.1-6.2c0-.8.1-1.2.2-2l-12-6.9c-1.7-.1-2.7-.2-4.4-.4l-17.1 6.2z" fill="#f2ff80"/><path d="m601.2 164.4 12 6.9c1.7.1 2.7.2 4.4.4l17.1-6.2c0-.8.1-1.2.2-2l-12-6.9c-1.7-.1-2.7-.2-4.4-.4l-17.1 6.2c0 .8-.1 1.2-.2 2z" fill="#f2ff80"/><path d="m585.1 155 12 6.9c1.7.1 2.7.2 4.4.4l17.1-6.2c0-.8.1-1.2.2-2l-12-6.9c-1.7-.1-2.7-.2-4.4-.4l-17.1 6.2c0 .8-.1 1.2-.2 2z" fill="#f2ff80"/><path d="m595.7 181.6 12 6.9c1.7.1 2.7.2 4.4.4l17.1-6.2c0-.8.1-1.2.2-2l-12-6.9c-1.7-.1-2.7-.2-4.4-.4l-17.1 6.2c0 .8-.1 1.2-.2 2z" fill="#f2ff80"/><path d="m579.5 172.2 12 6.9c1.7.1 2.7.2 4.4.4l17.1-6.2c0-.8.1-1.2.2-2l-12-6.9c-1.7-.1-2.7-.2-4.4-.4l-17.1 6.2c0 .8-.1 1.2-.2 2z" fill="#f2ff80"/><path d="m563.3 162.9 12 6.9c1.7.1 2.7.2 4.4.4l17.1-6.2c0-.8.1-1.2.2-2l-12-6.9c-1.7-.1-2.7-.2-4.4-.4l-17.1 6.2c0 .8-.1 1.2-.2 2z" fill="#f2ff80"/><path d="m573.9 189.4 12 6.9c1.7.1 2.7.2 4.4.4l17.1-6.2c0-.8.1-1.2.2-2l-12-6.9c-1.7-.1-2.7-.2-4.4-.4l-17.1 6.2c0 .8-.1 1.2-.2 2z" fill="#f2ff80"/><path d="m557.7 180.1 12 6.9c1.7.1 2.7.2 4.4.4l17.1-6.2c0-.8.1-1.2.2-2l-12-6.9c-1.7-.1-2.7-.2-4.4-.4l-17.1 6.2c0 .8-.1 1.2-.2 2z" fill="#f2ff80"/><path d="m541.5 170.8 12 6.9c1.7.1 2.7.2 4.4.4l17.1-6.2c0-.8.1-1.2.2-2l-12-6.9c-1.7-.1-2.7-.2-4.4-.4l-17.1 6.2c0 .8-.1 1.2-.2 2z" fill="#f2ff80"/><path d="m497.9 275.7 53.2 30.8 89.4-71.5-142.6 35.4z" fill="#372f75"/><path d="m731.7 196.8-144.4 7.5 53.2 30.8 91.2-33z" fill="#372f75"/><path d="m497.9 270.4 53.2 30.7 89.4-71.4-53.3-30.7z" fill="#372f75"/><path d="m600.7 238.9 12 6.9c1.7-.2 2.7-.4 4.4-.6l16.8-13.4c0-1.2.1-1.8.2-3l-12-6.9c-1.7.2-2.7.4-4.4.6l-16.8 13.4c0 1.2-.1 1.8-.2 3z" fill="#f2ff80"/><path d="m584.5 229.6 12 6.9c1.7-.2 2.7-.4 4.4-.6l16.8-13.4c0-1.2.1-1.8.2-3l-12-6.9c-1.7.2-2.7.4-4.4.6l-16.8 13.4z" fill="#f2ff80"/><path d="m568.3 220.2 12 6.9c1.7-.2 2.7-.4 4.4-.6l16.8-13.4c0-1.2.1-1.8.2-3l-12-6.9c-1.7.2-2.7.4-4.4.6l-16.8 13.4c0 1.2-.1 1.8-.2 3z" fill="#f2ff80"/><path d="m579.4 255.9 12 6.9c1.7-.2 2.7-.4 4.4-.6l16.8-13.4c0-1.2.1-1.8.2-3l-12-6.9c-1.7.2-2.7.4-4.4.6l-16.8 13.4c0 1.2-.1 1.8-.2 3z" fill="#f2ff80"/><path d="m563.2 246.6 12 6.9c1.7-.2 2.7-.4 4.4-.6l16.8-13.4c0-1.2.1-1.8.2-3l-12-6.9c-1.7.2-2.7.4-4.4.6l-16.8 13.4z" fill="#f2ff80"/><path d="m547 237.3 12 6.9c1.7-.2 2.7-.4 4.4-.6l16.8-13.4c0-1.2.1-1.8.2-3l-12-6.9c-1.7.2-2.7.4-4.4.6l-16.8 13.4c0 1.2-.1 1.8-.2 3z" fill="#f2ff80"/><path d="m558 273 12 6.9c1.7-.2 2.7-.4 4.4-.6l16.8-13.4c0-1.2.1-1.8.2-3l-12-6.9c-1.7.2-2.7.4-4.4.6l-16.8 13.4c0 1.2-.1 1.8-.2 3z" fill="#f2ff80"/><path d="m541.8 263.7 12 6.9c1.7-.2 2.7-.4 4.4-.6l16.8-13.4c0-1.2.1-1.8.2-3l-12-6.9c-1.7.2-2.7.4-4.4.6l-16.8 13.4c0 1.2-.1 1.8-.2 3z" fill="#f2ff80"/><path d="m525.7 254.3 12 6.9c1.7-.2 2.7-.4 4.4-.6l16.8-13.4c0-1.2.1-1.8.2-3l-12-6.9c-1.7.2-2.7.4-4.4.6l-16.8 13.4c0 1.2-.1 1.8-.2 3z" fill="#f2ff80"/><path d="m536.7 290.1 12 6.9c1.7-.2 2.7-.4 4.4-.6l16.8-13.4c0-1.2.1-1.8.2-3l-12-6.9c-1.7.2-2.7.4-4.4.6l-16.8 13.4c0 1.2-.1 1.8-.2 3z" fill="#f2ff80"/><path d="m520.5 280.7 12 6.9c1.7-.2 2.7-.4 4.4-.6l16.8-13.4c0-1.2.1-1.8.2-3l-12-6.9c-1.7.2-2.7.4-4.4.6l-16.8 13.4z" fill="#f2ff80"/><path d="m504.3 271.4 12 6.9c1.7-.2 2.7-.4 4.4-.6l16.8-13.4c0-1.2.1-1.8.2-3l-12-6.9c-1.7.2-2.7.4-4.4.6l-16.8 13.4c0 1.2-.1 1.8-.2 3z" fill="#f2ff80"/><path d="m587.3 199 53.2 30.8 91.2-33-53.3-30.8z" fill="#372f75"/><path d="m691.4 195.9 12 6.9c1.7.1 2.7.2 4.4.4l17.1-6.2c0-.8.1-1.2.2-2l-12-6.9c-1.7-.1-2.7-.2-4.4-.4l-17.1 6.2c0 .8-.1 1.2-.2 2z" fill="#f2ff80"/><path d="m675.2 186.6 12 6.9c1.7.1 2.7.2 4.4.4l17.1-6.2c0-.8.1-1.2.2-2l-12-6.9c-1.7-.1-2.7-.2-4.4-.4l-17.1 6.2c0 .8-.1 1.2-.2 2z" fill="#f2ff80"/><path d="m659 177.2 12 6.9c1.7.1 2.7.2 4.4.4l17.1-6.2c0-.8.1-1.2.2-2l-12-6.9c-1.7-.1-2.7-.2-4.4-.4l-17.1 6.2c0 .8-.1 1.2-.2 2z" fill="#f2ff80"/><path d="m669.6 203.8 12 6.9c1.7.1 2.7.2 4.4.4l17.1-6.2c0-.8.1-1.2.2-2l-12-6.9c-1.7-.1-2.7-.2-4.4-.4l-17.1 6.2c0 .8-.1 1.2-.2 2z" fill="#f2ff80"/><path d="m653.5 194.4 12 6.9c1.7.1 2.7.2 4.4.4l17.1-6.2c0-.8.1-1.2.2-2l-12-6.9c-1.7-.1-2.7-.2-4.4-.4l-17.1 6.2c0 .8-.1 1.2-.2 2z" fill="#f2ff80"/><path d="m637.3 185.1 12 6.9c1.7.1 2.7.2 4.4.4l17.1-6.2c0-.8.1-1.2.2-2l-12-6.9c-1.7-.1-2.7-.2-4.4-.4l-17.1 6.2c0 .8-.1 1.2-.2 2z" fill="#f2ff80"/><path d="m647.9 211.6 12 6.9c1.7.1 2.7.2 4.4.4l17.1-6.2c0-.8.1-1.2.2-2l-12-6.9c-1.7-.1-2.7-.2-4.4-.4l-17.1 6.2c0 .8-.1 1.2-.2 2z" fill="#f2ff80"/><path d="m631.7 202.3 12 6.9c1.7.1 2.7.2 4.4.4l17.1-6.2c0-.8.1-1.2.2-2l-12-6.9c-1.7-.1-2.7-.2-4.4-.4l-17.1 6.2c0 .8-.1 1.2-.2 2z" fill="#f2ff80"/><path d="m615.5 193 12 6.9c1.7.1 2.7.2 4.4.4l17.1-6.2c0-.8.1-1.2.2-2l-12-6.9c-1.7-.1-2.7-.2-4.4-.4l-17.1 6.2c0 .8-.1 1.2-.2 2z" fill="#f2ff80"/><path d="m626.1 219.5 12 6.9c1.7.1 2.7.2 4.4.4l17.1-6.2c0-.8.1-1.2.2-2l-12-6.9c-1.7-.1-2.7-.2-4.4-.4l-17.1 6.2c0 .8-.1 1.2-.2 2z" fill="#f2ff80"/><path d="m609.9 210.2 12 6.9c1.7.1 2.7.2 4.4.4l17.1-6.2c0-.8.1-1.2.2-2l-12-6.9c-1.7-.1-2.7-.2-4.4-.4l-17.1 6.2c0 .8-.1 1.2-.2 2z" fill="#f2ff80"/><path d="m593.7 200.8 12 6.9c1.7.1 2.7.2 4.4.4l17.1-6.2c0-.8.1-1.2.2-2l-12-6.9c-1.7-.1-2.7-.2-4.4-.4l-17.1 6.2c0 .8-.1 1.2-.2 2z" fill="#f2ff80"/><path d="m550.1 305.8 53.2 30.7 89.4-71.4-2.4-8.6-140.2 44z" fill="#372f75"/><path d="m783.9 226.9-144.4 7.5 53.2 30.7 91.2-32.9z" fill="#372f75"/><path d="m550.1 300.5 53.2 30.7 89.4-71.4-53.2-30.7z" fill="#372f75"/><path d="m652.9 269 12 6.9c1.7-.2 2.7-.4 4.4-.6l16.8-13.4c0-1.2.1-1.8.2-3l-12-6.9c-1.7.2-2.7.4-4.4.6l-16.8 13.4c0 1.2-.1 1.8-.2 3z" fill="#f2ff80"/><path d="m636.7 259.6 12 6.9c1.7-.2 2.7-.4 4.4-.6l16.8-13.4c0-1.2.1-1.8.2-3l-12-6.9c-1.7.2-2.7.4-4.4.6l-16.8 13.4c0 1.2-.1 1.8-.2 3z" fill="#f2ff80"/><path d="m620.6 250.3 12 6.9c1.7-.2 2.7-.4 4.4-.6l16.8-13.4.2-3-12-6.9c-1.7.2-2.7.4-4.4.6l-16.8 13.4c0 1.2-.1 1.8-.2 3z" fill="#f2ff80"/><path d="m631.6 286 12 6.9c1.7-.2 2.7-.4 4.4-.6l16.8-13.4c0-1.2.1-1.8.2-3l-12-6.9c-1.7.2-2.7.4-4.4.6l-16.8 13.4c0 1.2-.1 1.8-.2 3z" fill="#f2ff80"/><path d="m615.4 276.7 12 6.9c1.7-.2 2.7-.4 4.4-.6l16.8-13.4c0-1.2.1-1.8.2-3l-12-6.9c-1.7.2-2.7.4-4.4.6l-16.8 13.4z" fill="#f2ff80"/><path d="m599.2 267.3 12 6.9c1.7-.2 2.7-.4 4.4-.6l16.8-13.4c0-1.2.1-1.8.2-3l-12-6.9c-1.7.2-2.7.4-4.4.6l-16.8 13.4z" fill="#f2ff80"/><path d="m610.2 303.1 12 6.9c1.7-.2 2.7-.4 4.4-.6l16.8-13.4c0-1.2.1-1.8.2-3l-12-6.9c-1.7.2-2.7.4-4.4.6l-16.8 13.4c0 1.2-.1 1.8-.2 3z" fill="#f2ff80"/><path d="m594.1 293.7 12 6.9c1.7-.2 2.7-.4 4.4-.6l16.8-13.4c0-1.2.1-1.8.2-3l-12-6.9c-1.7.2-2.7.4-4.4.6l-16.8 13.4c0 1.2-.1 1.8-.2 3z" fill="#f2ff80"/><path d="m577.9 284.4 12 6.9c1.7-.2 2.7-.4 4.4-.6l16.8-13.4.2-3-12-6.9c-1.7.2-2.7.4-4.4.6l-16.8 13.4c0 1.2-.1 1.8-.2 3z" fill="#f2ff80"/><path d="m588.9 320.1 12 6.9c1.7-.2 2.7-.4 4.4-.6l16.8-13.4c0-1.2.1-1.8.2-3l-12-6.9c-1.7.2-2.7.4-4.4.6l-16.8 13.4c0 1.2-.1 1.8-.2 3z" fill="#f2ff80"/><path d="m572.7 310.8 12 6.9c1.7-.2 2.7-.4 4.4-.6l16.8-13.4c0-1.2.1-1.8.2-3l-12-6.9c-1.7.2-2.7.4-4.4.6l-16.8 13.4c0 1.2-.1 1.8-.2 3z" fill="#f2ff80"/><path d="m556.5 301.4 12 6.9c1.7-.2 2.7-.4 4.4-.6l16.8-13.4c0-1.2.1-1.8.2-3l-12-6.9c-1.7.2-2.7.4-4.4.6l-16.8 13.4c0 1.2-.1 1.8-.2 3z" fill="#f2ff80"/><path d="m639.5 229.1 53.2 30.7 91.2-32.9-53.3-30.8z" fill="#372f75"/><path d="m743.6 226 12 6.9c1.7.1 2.7.2 4.4.4l17.1-6.2c0-.8.1-1.2.2-2l-12-6.9c-1.7-.1-2.7-.2-4.4-.4l-17.1 6.2c0 .8-.1 1.2-.2 2z" fill="#f2ff80"/><path d="m727.4 216.6 12 6.9c1.7.1 2.7.2 4.4.4l17.1-6.2c0-.8.1-1.2.2-2l-12-6.9c-1.7-.1-2.7-.2-4.4-.4l-17.1 6.2c0 .8-.1 1.2-.2 2z" fill="#f2ff80"/><path d="m711.3 207.3 12 6.9c1.7.1 2.7.2 4.4.4l17.1-6.2c0-.8.1-1.2.2-2l-12-6.9c-1.7-.1-2.7-.2-4.4-.4l-17.1 6.2c0 .8-.1 1.2-.2 2z" fill="#f2ff80"/><path d="m721.9 233.8 12 6.9c1.7.1 2.7.2 4.4.4l17.1-6.2c0-.8.1-1.2.2-2l-12-6.9c-1.7-.1-2.7-.2-4.4-.4l-17.1 6.2c0 .8-.1 1.2-.2 2z" fill="#f2ff80"/><path d="m705.7 224.5 12 6.9c1.7.1 2.7.2 4.4.4l17.1-6.2.2-2-12-6.9c-1.7-.1-2.7-.2-4.4-.4l-17.1 6.2c0 .8-.1 1.2-.2 2z" fill="#f2ff80"/><path d="m689.5 215.2 12 6.9c1.7.1 2.7.2 4.4.4l17.1-6.2c0-.8.1-1.2.2-2l-12-6.9c-1.7-.1-2.7-.2-4.4-.4l-17.1 6.2c0 .8-.1 1.2-.2 2z" fill="#f2ff80"/><path d="m700.1 241.7 12 6.9c1.7.1 2.7.2 4.4.4l17.1-6.2c0-.8.1-1.2.2-2l-12-6.9c-1.7-.1-2.7-.2-4.4-.4l-17.1 6.2c0 .8-.1 1.2-.2 2z" fill="#f2ff80"/><path d="m683.9 232.4 12 6.9c1.7.1 2.7.2 4.4.4l17.1-6.2c0-.8.1-1.2.2-2l-12-6.9c-1.7-.1-2.7-.2-4.4-.4l-17.1 6.2c0 .8-.1 1.2-.2 2z" fill="#f2ff80"/><path d="m667.7 223 12 6.9c1.7.1 2.7.2 4.4.4l17.1-6.2c0-.8.1-1.2.2-2l-12-6.9c-1.7-.1-2.7-.2-4.4-.4l-17.1 6.2c0 .8-.1 1.2-.2 2z" fill="#f2ff80"/><path d="m678.3 249.6 12 6.9c1.7.1 2.7.2 4.4.4l17.1-6.2c0-.8.1-1.2.2-2l-12-6.9c-1.7-.1-2.7-.2-4.4-.4l-17.1 6.2c0 .8-.1 1.2-.2 2z" fill="#f2ff80"/><path d="m662.1 240.2 12 6.9c1.7.1 2.7.2 4.4.4l17.1-6.2c0-.8.1-1.2.2-2l-12-6.9c-1.7-.1-2.7-.2-4.4-.4l-17.1 6.2c0 .8-.1 1.2-.2 2z" fill="#f2ff80"/><path d="m646 230.9 12 6.9c1.7.1 2.7.2 4.4.4l17.1-6.2c0-.8.1-1.2.2-2l-12-6.9c-1.7-.1-2.7-.2-4.4-.4l-17.1 6.2c0 .8-.1 1.2-.2 2z" fill="#f2ff80"/><path d="m.5 332.9 365.2 210.8v-26.9l-365.2-210.9z" fill="#fffef6"/></g></svg>