<svg width="450" height="472" viewBox="0 0 450 472" fill="none" xmlns="http://www.w3.org/2000/svg">
<g clip-path="url(#clip0_1955_8901)">
<path d="M224.82 268.81C242.714 268.81 257.22 254.304 257.22 236.41C257.22 218.516 242.714 204.01 224.82 204.01C206.926 204.01 192.42 218.516 192.42 236.41C192.42 254.304 206.926 268.81 224.82 268.81Z" fill="#F2FF80" stroke="#FFFEF6" stroke-width="1.3" stroke-linecap="round" stroke-linejoin="round"/>
<path d="M223.561 164.32L222.551 106.67" stroke="#FFFEF6" stroke-width="1.3" stroke-linecap="round" stroke-linejoin="round"/>
<path d="M198.981 169.1L178.311 115.27" stroke="#FFFEF6" stroke-width="1.3" stroke-linecap="round" stroke-linejoin="round"/>
<path d="M177.51 181.99L139.68 138.48" stroke="#FFFEF6" stroke-width="1.3" stroke-linecap="round" stroke-linejoin="round"/>
<path d="M161.75 201.46L111.32 173.5" stroke="#FFFEF6" stroke-width="1.3" stroke-linecap="round" stroke-linejoin="round"/>
<path d="M153.6 225.13L96.6504 216.11" stroke="#FFFEF6" stroke-width="1.3" stroke-linecap="round" stroke-linejoin="round"/>
<path d="M154.039 250.17L97.4395 261.17" stroke="#FFFEF6" stroke-width="1.3" stroke-linecap="round" stroke-linejoin="round"/>
<path d="M163.01 273.55L113.59 303.25" stroke="#FFFEF6" stroke-width="1.3" stroke-linecap="round" stroke-linejoin="round"/>
<path d="M179.44 292.45L143.15 337.26" stroke="#FFFEF6" stroke-width="1.3" stroke-linecap="round" stroke-linejoin="round"/>
<path d="M201.34 304.59L182.57 359.11" stroke="#FFFEF6" stroke-width="1.3" stroke-linecap="round" stroke-linejoin="round"/>
<path d="M226.07 308.51L227.08 366.16" stroke="#FFFEF6" stroke-width="1.3" stroke-linecap="round" stroke-linejoin="round"/>
<path d="M250.66 303.73L271.32 357.56" stroke="#FFFEF6" stroke-width="1.3" stroke-linecap="round" stroke-linejoin="round"/>
<path d="M272.121 290.83L309.951 334.35" stroke="#FFFEF6" stroke-width="1.3" stroke-linecap="round" stroke-linejoin="round"/>
<path d="M287.881 271.37L338.311 299.32" stroke="#FFFEF6" stroke-width="1.3" stroke-linecap="round" stroke-linejoin="round"/>
<path d="M296.031 247.69L352.981 256.71" stroke="#FFFEF6" stroke-width="1.3" stroke-linecap="round" stroke-linejoin="round"/>
<path d="M295.6 222.65L352.19 211.65" stroke="#FFFEF6" stroke-width="1.3" stroke-linecap="round" stroke-linejoin="round"/>
<path d="M286.621 199.28L336.041 169.58" stroke="#FFFEF6" stroke-width="1.3" stroke-linecap="round" stroke-linejoin="round"/>
<path d="M270.189 180.38L306.479 135.57" stroke="#FFFEF6" stroke-width="1.3" stroke-linecap="round" stroke-linejoin="round"/>
<path d="M248.291 168.24L267.061 113.72" stroke="#FFFEF6" stroke-width="1.3" stroke-linecap="round" stroke-linejoin="round"/>
<path d="M215.97 190.92L208.9 154.54" stroke="#FFFEF6" stroke-width="1.3" stroke-linecap="round" stroke-linejoin="round"/>
<path d="M200.939 196.68L181.859 164.92" stroke="#FFFEF6" stroke-width="1.3" stroke-linecap="round" stroke-linejoin="round"/>
<path d="M188.8 207.24L159.99 183.92" stroke="#FFFEF6" stroke-width="1.3" stroke-linecap="round" stroke-linejoin="round"/>
<path d="M180.989 221.32L145.949 209.26" stroke="#FFFEF6" stroke-width="1.3" stroke-linecap="round" stroke-linejoin="round"/>
<path d="M178.47 237.22L141.42 237.87" stroke="#FFFEF6" stroke-width="1.3" stroke-linecap="round" stroke-linejoin="round"/>
<path d="M181.549 253.02L146.949 266.3" stroke="#FFFEF6" stroke-width="1.3" stroke-linecap="round" stroke-linejoin="round"/>
<path d="M189.839 266.82L161.859 291.13" stroke="#FFFEF6" stroke-width="1.3" stroke-linecap="round" stroke-linejoin="round"/>
<path d="M202.351 276.95L184.381 309.36" stroke="#FFFEF6" stroke-width="1.3" stroke-linecap="round" stroke-linejoin="round"/>
<path d="M217.56 282.19L211.77 318.8" stroke="#FFFEF6" stroke-width="1.3" stroke-linecap="round" stroke-linejoin="round"/>
<path d="M233.66 281.91L240.73 318.29" stroke="#FFFEF6" stroke-width="1.3" stroke-linecap="round" stroke-linejoin="round"/>
<path d="M248.689 276.14L267.769 307.91" stroke="#FFFEF6" stroke-width="1.3" stroke-linecap="round" stroke-linejoin="round"/>
<path d="M260.83 265.58L289.64 288.9" stroke="#FFFEF6" stroke-width="1.3" stroke-linecap="round" stroke-linejoin="round"/>
<path d="M268.641 251.5L303.681 263.57" stroke="#FFFEF6" stroke-width="1.3" stroke-linecap="round" stroke-linejoin="round"/>
<path d="M271.16 235.6L308.21 234.96" stroke="#FFFEF6" stroke-width="1.3" stroke-linecap="round" stroke-linejoin="round"/>
<path d="M268.08 219.8L302.68 206.52" stroke="#FFFEF6" stroke-width="1.3" stroke-linecap="round" stroke-linejoin="round"/>
<path d="M259.789 206.01L287.769 181.69" stroke="#FFFEF6" stroke-width="1.3" stroke-linecap="round" stroke-linejoin="round"/>
<path d="M247.289 195.88L265.249 163.46" stroke="#FFFEF6" stroke-width="1.3" stroke-linecap="round" stroke-linejoin="round"/>
<path d="M232.07 190.64L237.86 154.03" stroke="#FFFEF6" stroke-width="1.3" stroke-linecap="round" stroke-linejoin="round"/>
<path d="M224.82 268.81C242.714 268.81 257.22 254.304 257.22 236.41C257.22 218.516 242.714 204.01 224.82 204.01C206.926 204.01 192.42 218.516 192.42 236.41C192.42 254.304 206.926 268.81 224.82 268.81Z" fill="#F2FF80" stroke="#090044" stroke-width="1.3" stroke-linecap="round" stroke-linejoin="round"/>
<path d="M224.82 164.31V106.65" stroke="#090044" stroke-width="1.3" stroke-linecap="round" stroke-linejoin="round"/>
<path d="M200.15 168.66L180.43 114.48" stroke="#090044" stroke-width="1.3" stroke-linecap="round" stroke-linejoin="round"/>
<path d="M178.47 181.18L141.41 137.01" stroke="#090044" stroke-width="1.3" stroke-linecap="round" stroke-linejoin="round"/>
<path d="M162.369 200.36L112.439 171.53" stroke="#090044" stroke-width="1.3" stroke-linecap="round" stroke-linejoin="round"/>
<path d="M153.81 223.89L97.0195 213.88" stroke="#090044" stroke-width="1.3" stroke-linecap="round" stroke-linejoin="round"/>
<path d="M153.81 248.93L97.0195 258.95" stroke="#090044" stroke-width="1.3" stroke-linecap="round" stroke-linejoin="round"/>
<path d="M162.369 272.47L112.439 301.29" stroke="#090044" stroke-width="1.3" stroke-linecap="round" stroke-linejoin="round"/>
<path d="M178.47 291.65L141.41 335.82" stroke="#090044" stroke-width="1.3" stroke-linecap="round" stroke-linejoin="round"/>
<path d="M200.15 304.17L180.43 358.35" stroke="#090044" stroke-width="1.3" stroke-linecap="round" stroke-linejoin="round"/>
<path d="M224.82 308.52V366.18" stroke="#090044" stroke-width="1.3" stroke-linecap="round" stroke-linejoin="round"/>
<path d="M249.48 304.17L269.2 358.35" stroke="#090044" stroke-width="1.3" stroke-linecap="round" stroke-linejoin="round"/>
<path d="M271.16 291.65L308.22 335.82" stroke="#090044" stroke-width="1.3" stroke-linecap="round" stroke-linejoin="round"/>
<path d="M287.26 272.47L337.19 301.29" stroke="#090044" stroke-width="1.3" stroke-linecap="round" stroke-linejoin="round"/>
<path d="M295.82 248.93L352.61 258.95" stroke="#090044" stroke-width="1.3" stroke-linecap="round" stroke-linejoin="round"/>
<path d="M295.82 223.89L352.61 213.88" stroke="#090044" stroke-width="1.3" stroke-linecap="round" stroke-linejoin="round"/>
<path d="M287.26 200.36L337.19 171.53" stroke="#090044" stroke-width="1.3" stroke-linecap="round" stroke-linejoin="round"/>
<path d="M271.16 181.18L308.22 137.01" stroke="#090044" stroke-width="1.3" stroke-linecap="round" stroke-linejoin="round"/>
<path d="M249.48 168.66L269.2 114.48" stroke="#090044" stroke-width="1.3" stroke-linecap="round" stroke-linejoin="round"/>
<path d="M216.77 190.77L210.33 154.27" stroke="#090044" stroke-width="1.3" stroke-linecap="round" stroke-linejoin="round"/>
<path d="M201.639 196.27L183.109 164.18" stroke="#090044" stroke-width="1.3" stroke-linecap="round" stroke-linejoin="round"/>
<path d="M189.31 206.62L160.92 182.8" stroke="#090044" stroke-width="1.3" stroke-linecap="round" stroke-linejoin="round"/>
<path d="M181.259 220.56L146.439 207.88" stroke="#090044" stroke-width="1.3" stroke-linecap="round" stroke-linejoin="round"/>
<path d="M178.47 236.41H141.41" stroke="#090044" stroke-width="1.3" stroke-linecap="round" stroke-linejoin="round"/>
<path d="M181.259 252.26L146.439 264.94" stroke="#090044" stroke-width="1.3" stroke-linecap="round" stroke-linejoin="round"/>
<path d="M189.31 266.2L160.92 290.03" stroke="#090044" stroke-width="1.3" stroke-linecap="round" stroke-linejoin="round"/>
<path d="M201.639 276.55L183.109 308.65" stroke="#090044" stroke-width="1.3" stroke-linecap="round" stroke-linejoin="round"/>
<path d="M216.77 282.06L210.33 318.56" stroke="#090044" stroke-width="1.3" stroke-linecap="round" stroke-linejoin="round"/>
<path d="M232.859 282.06L239.299 318.56" stroke="#090044" stroke-width="1.3" stroke-linecap="round" stroke-linejoin="round"/>
<path d="M247.99 276.55L266.52 308.65" stroke="#090044" stroke-width="1.3" stroke-linecap="round" stroke-linejoin="round"/>
<path d="M260.32 266.2L288.71 290.03" stroke="#090044" stroke-width="1.3" stroke-linecap="round" stroke-linejoin="round"/>
<path d="M268.371 252.26L303.191 264.94" stroke="#090044" stroke-width="1.3" stroke-linecap="round" stroke-linejoin="round"/>
<path d="M271.16 236.41H308.22" stroke="#090044" stroke-width="1.3" stroke-linecap="round" stroke-linejoin="round"/>
<path d="M268.371 220.56L303.191 207.88" stroke="#090044" stroke-width="1.3" stroke-linecap="round" stroke-linejoin="round"/>
<path d="M260.32 206.62L288.71 182.8" stroke="#090044" stroke-width="1.3" stroke-linecap="round" stroke-linejoin="round"/>
<path d="M247.99 196.27L266.52 164.18" stroke="#090044" stroke-width="1.3" stroke-linecap="round" stroke-linejoin="round"/>
<path d="M232.859 190.77L239.299 154.27" stroke="#090044" stroke-width="1.3" stroke-linecap="round" stroke-linejoin="round"/>
</g>
<defs>
<clipPath id="clip0_1955_8901">
<rect width="257.63" height="260.83" fill="white" transform="translate(96 106)"/>
</clipPath>
</defs>
</svg>
