<svg width="450" height="472" viewBox="0 0 450 472" fill="none" xmlns="http://www.w3.org/2000/svg">
<g clip-path="url(#clip0_1955_8898)">
<path d="M404.221 233.89V287.3H404.191C404.051 289.43 402.971 291.52 400.881 292.7L275.661 365C271.201 367.58 266.291 368.97 261.301 369.11V200.48L298.581 222.01L404.221 233.89Z" fill="#372F75" stroke="#090044" stroke-linecap="round" stroke-linejoin="round"/>
<path d="M261.3 200.48V369.12C255.62 369.33 249.91 367.94 244.85 365.01L50.0099 252.53C47.9199 251.31 46.8399 249.25 46.6999 247.13L46.6699 193.68L117.85 201.69L175.24 168.55C184.75 163.04 196.49 163.04 206.04 168.55L261.3 200.47V200.48Z" fill="#FFFEF6" stroke="#090044" stroke-linecap="round" stroke-linejoin="round"/>
<path d="M404.221 229.4V282.85H404.191C404.051 284.98 402.971 287.03 400.881 288.25L275.661 360.55C271.201 363.13 266.291 364.52 261.301 364.66V196.02L298.581 217.55L404.221 229.4Z" fill="#090044" stroke="#090044" stroke-linecap="round" stroke-linejoin="round"/>
<path d="M261.3 196.02V364.66C255.62 364.87 249.91 363.48 244.85 360.55L50.0099 248.04C47.9199 246.86 46.8399 244.76 46.6999 242.64L46.6699 189.23L117.85 197.21L175.24 164.11C184.75 158.6 196.49 158.6 206.04 164.11L261.3 196.03V196.02Z" fill="#372F75" stroke="#090044" stroke-linecap="round" stroke-linejoin="round"/>
<path d="M400.88 234.83L275.66 307.09C266.15 312.59 254.37 312.59 244.86 307.09L174.79 266.64C174.79 266.64 174.69 266.61 174.65 266.57L50.0098 194.62C49.2098 194.17 48.5798 193.57 48.0898 192.95C47.9198 192.71 47.7398 192.5 47.5998 192.25C47.0098 191.31 46.6898 190.3 46.6598 189.22V188.98C46.6598 188.84 46.6298 188.74 46.6598 188.6V188.39C46.6598 187.87 46.7598 187.34 46.9398 186.86C47.3598 188.43 48.3998 189.82 50.0098 190.73L174.64 262.68C184.15 268.18 195.89 268.18 205.44 262.68L330.63 190.38C332.89 189.09 334.01 186.83 334.01 184.56L400.87 223.17C405.36 225.75 405.36 232.23 400.87 234.84L400.88 234.83Z" fill="#5A569C" stroke="#090044" stroke-linecap="round" stroke-linejoin="round"/>
<path d="M381.141 246.21L374.891 242.6L381.141 253.4V246.21Z" fill="#FFFEF6" stroke="#090044" stroke-linecap="round" stroke-linejoin="round"/>
<path d="M348.08 272.48V265.29L341.83 261.68L374.88 242.6L381.13 253.4L348.08 272.48Z" fill="#F2FF80" stroke="#090044" stroke-linecap="round" stroke-linejoin="round"/>
<path d="M372.607 248.997L370.928 249.968L372.77 253.154L374.449 252.183L372.607 248.997Z" fill="#F2FF80" stroke="#090044" stroke-linecap="round" stroke-linejoin="round"/>
<path d="M366.662 252.435L364.982 253.406L366.825 256.591L368.504 255.62L366.662 252.435Z" fill="#F2FF80" stroke="#090044" stroke-linecap="round" stroke-linejoin="round"/>
<path d="M360.709 255.863L359.029 256.834L360.872 260.019L362.551 259.048L360.709 255.863Z" fill="#F2FF80" stroke="#090044" stroke-linecap="round" stroke-linejoin="round"/>
<path d="M354.769 259.304L353.09 260.275L354.932 263.461L356.611 262.49L354.769 259.304Z" fill="#F2FF80" stroke="#090044" stroke-linecap="round" stroke-linejoin="round"/>
<path d="M348.816 262.732L347.137 263.703L348.979 266.889L350.658 265.918L348.816 262.732Z" fill="#F2FF80" stroke="#090044" stroke-linecap="round" stroke-linejoin="round"/>
<path d="M108.5 262.3L69.0801 239.54V220.22L108.5 242.98V262.3Z" fill="#5A569C" stroke="#090044" stroke-linecap="round" stroke-linejoin="round"/>
<path d="M172.641 280.02V283.85L180.051 288.13V304.37L154.751 289.76V273.52L162.161 277.8V273.97L151.881 268.03V291.92L182.921 309.84V285.95L172.641 280.01V280.02Z" fill="#5A569C" stroke="#090044" stroke-linecap="round" stroke-linejoin="round"/>
<path d="M217.44 305.88V309.71L224.85 313.99V330.23L199.55 315.62V299.38L206.96 303.66V299.83L196.68 293.89V317.78L227.72 335.7V311.81L217.44 305.87V305.88Z" fill="#5A569C" stroke="#090044" stroke-linecap="round" stroke-linejoin="round"/>
<path d="M84.8802 234.42V235.43L76.4102 240.34V230.06C76.4102 230.06 78.1902 228.94 80.8702 230.48C82.7202 231.56 84.1102 233.37 84.8102 234.42H84.8802Z" fill="#090044" stroke="#090044" stroke-linecap="round" stroke-linejoin="round"/>
<path d="M101.16 244.35V254.63L93.2499 250.07L92.2399 249.48L85.3399 245.51L84.3299 244.92L76.4199 240.36L84.8899 235.45V234.44C85.6199 234.23 86.9799 234.06 88.7899 235.07C90.6399 236.15 92.0299 237.96 92.7299 239.01C93.4599 238.8 94.8599 238.59 96.6999 239.67C99.3799 241.2 101.16 244.37 101.16 244.37V244.35Z" fill="#372F75" stroke="#090044" stroke-linecap="round" stroke-linejoin="round"/>
<path d="M101.161 244.35V244.84L100.711 244.56L93.8106 240.59L92.8006 240L84.8906 235.44V234.43C85.6206 234.22 86.9806 234.05 88.7906 235.06C90.6406 236.14 92.0306 237.95 92.7306 239C93.4606 238.79 94.8606 238.58 96.7006 239.66C99.3806 241.19 101.161 244.36 101.161 244.36V244.35Z" fill="#090044" stroke="#090044" stroke-linecap="round" stroke-linejoin="round"/>
<path d="M106.16 251.64C106.16 252.62 105.56 253.07 104.83 252.65C104.1 252.23 103.5 251.09 103.5 250.11C103.5 249.13 104.1 248.68 104.83 249.1C105.56 249.52 106.16 250.66 106.16 251.64Z" fill="#372F75" stroke="#090044" stroke-linecap="round" stroke-linejoin="round"/>
<path d="M74.0897 233.12C74.0897 234.1 73.4897 234.55 72.7597 234.13C72.0297 233.71 71.4297 232.57 71.4297 231.59C71.4297 230.61 72.0297 230.16 72.7597 230.58C73.4897 231 74.0897 232.14 74.0897 233.12Z" fill="#372F75" stroke="#090044" stroke-linecap="round" stroke-linejoin="round"/>
<path d="M118.961 249.16V255.22L112.971 258.71V245.71L118.961 249.16Z" fill="#090044" stroke="#090044" stroke-linecap="round" stroke-linejoin="round"/>
<path d="M118.961 255.22V262.16L112.971 258.71L118.961 255.22Z" fill="#372F75" stroke="#090044" stroke-linecap="round" stroke-linejoin="round"/>
<path d="M124.951 252.64V258.71L118.961 262.16V249.16L124.951 252.64Z" fill="#090044" stroke="#090044" stroke-linecap="round" stroke-linejoin="round"/>
<path d="M124.951 258.71V265.61L118.961 262.16L124.951 258.71Z" fill="#372F75" stroke="#090044" stroke-linecap="round" stroke-linejoin="round"/>
<path d="M130.949 256.09V262.16L124.949 265.61V252.64L130.949 256.09Z" fill="#090044" stroke="#090044" stroke-linecap="round" stroke-linejoin="round"/>
<path d="M130.949 262.16V269.06L124.949 265.61L130.949 262.16Z" fill="#372F75" stroke="#090044" stroke-linecap="round" stroke-linejoin="round"/>
<path d="M136.899 259.54V265.61L130.949 269.06V256.09L136.899 259.54Z" fill="#090044" stroke="#090044" stroke-linecap="round" stroke-linejoin="round"/>
<path d="M136.899 265.61V272.54L130.949 269.06L136.899 265.61Z" fill="#372F75" stroke="#090044" stroke-linecap="round" stroke-linejoin="round"/>
<path d="M142.9 262.99V269.06L136.9 272.54V259.54L142.9 262.99Z" fill="#090044" stroke="#090044" stroke-linecap="round" stroke-linejoin="round"/>
<path d="M142.9 269.06V275.99L136.9 272.54L142.9 269.06Z" fill="#372F75" stroke="#090044" stroke-linecap="round" stroke-linejoin="round"/>
<path d="M334.01 184.55L333.98 188.28L333.91 189.22C333.7 191.21 332.62 193.12 330.63 194.27L205.44 266.57C200.77 269.25 195.58 270.61 190.35 270.68V106.54C193.1 106.51 195.85 106.85 198.54 107.55C201.12 108.25 203.63 109.29 206.03 110.65L330.63 182.6C331.54 183.12 332.2 183.82 332.72 184.55H334.01Z" fill="#372F75" stroke="#090044" stroke-linecap="round" stroke-linejoin="round"/>
<path d="M190.36 106.54V270.68C184.99 270.75 179.59 269.39 174.78 266.64C174.75 266.64 174.68 266.61 174.64 266.57L50.0102 194.62C49.2102 194.17 48.5802 193.57 48.0902 192.95C47.9202 192.71 47.7402 192.5 47.6002 192.25C47.0802 191.31 46.7602 190.26 46.6902 189.22H46.6602L46.6902 184.73H48.0802C48.3602 184.38 48.6402 184.07 48.9202 183.75C49.0902 183.61 49.2702 183.47 49.4402 183.33C49.6102 183.19 49.7902 183.09 50.0002 182.95L93.2702 157.97L97.4502 160.79C99.7502 160.79 97.9002 157.38 99.9602 156.16L154.07 124.94C155.15 124.31 155.64 123.16 155.5 122.05L175.22 110.66C177.62 109.3 180.13 108.26 182.71 107.56C185.18 106.9 187.76 106.58 190.34 106.55L190.36 106.54Z" fill="#FFFEF6" stroke="#090044" stroke-linecap="round" stroke-linejoin="round"/>
<path d="M206.961 299.83L217.441 305.88" stroke="#090044" stroke-linecap="round" stroke-linejoin="round"/>
<path d="M162.16 273.97L172.64 280.02" stroke="#090044" stroke-linecap="round" stroke-linejoin="round"/>
<path d="M199.551 315.62L216.931 305.59L210.281 301.75L206.961 303.66L199.551 299.38V315.62Z" fill="#372F75" stroke="#090044" stroke-linecap="round" stroke-linejoin="round"/>
<path d="M206.961 303.66L210.281 301.75L206.961 299.83V303.66Z" fill="#372F75" stroke="#090044" stroke-linecap="round" stroke-linejoin="round"/>
<path d="M162.16 277.79L165.48 275.88L162.16 273.97V277.79Z" fill="#372F75" stroke="#090044" stroke-linecap="round" stroke-linejoin="round"/>
<path d="M154.75 289.75L172.13 279.72L165.48 275.88L162.16 277.79L154.75 273.52V289.75Z" fill="#372F75" stroke="#090044" stroke-linecap="round" stroke-linejoin="round"/>
<path d="M155.44 123.05C155.41 123.43 155.23 123.78 154.99 124.1C155.23 123.79 155.37 123.44 155.44 123.05Z" fill="#FFFEF6" stroke="#090044" stroke-linecap="round" stroke-linejoin="round"/>
<path d="M330.629 178.7L206.039 106.75C196.489 101.28 184.749 101.28 175.239 106.78L153.919 119.08L153.879 119.05L151.619 117.76L150.229 116.92L146.889 118.84L147.589 120.02L142.889 122.74L138.259 121.87L136.589 122.81L139.689 124.59L141.219 125.5L142.749 126.37L152.019 121.04L155.469 123.06C155.439 123.44 155.259 123.79 155.019 124.11C154.809 124.42 154.499 124.7 154.109 124.95L142.749 131.5L102.299 154.84L99.9292 156.2L96.0292 158.43L95.6492 158.67L95.1592 158.39L94.3192 157.9L91.4592 156.26L87.0692 153.68L84.9092 154.93L88.3592 156.92L50.0092 179.05C47.8092 180.34 46.7292 182.53 46.6992 184.73V185.32C46.6992 185.86 46.7692 186.37 46.9392 186.85C47.3592 188.42 48.3992 189.81 50.0092 190.72L174.639 262.67C184.149 268.17 195.889 268.17 205.439 262.67L330.629 190.37C332.889 189.08 334.009 186.82 334.009 184.55C334.009 182.28 332.889 180.02 330.629 178.7Z" fill="#FFFEF6" stroke="#090044" stroke-linecap="round" stroke-linejoin="round"/>
<path d="M136.58 122.81V135.04L142.74 131.48V126.37L136.58 122.81Z" fill="#FFFEF6" stroke="#090044" stroke-linecap="round" stroke-linejoin="round"/>
<path d="M156.37 123.6C156.37 123.6 154.85 124.49 154.09 124.94L142.73 131.49V126.37L152 121.04L156.37 123.6Z" fill="#372F75" stroke="#090044" stroke-linecap="round" stroke-linejoin="round"/>
<path d="M84.8906 154.94V158.91L88.3406 156.92L84.8906 154.94Z" fill="#FFFEF6" stroke="#090044" stroke-linecap="round" stroke-linejoin="round"/>
<path d="M241.21 267.43L238.77 264.99C238.09 264.3 238.13 263.73 238.88 263.3C239.43 262.98 240.1 262.86 240.9 262.93C241.7 263 242.46 263.24 243.18 263.66C244.69 264.53 244.67 265.49 243.12 266.54L245.55 267.49C246.61 266.76 247.1 265.97 247.03 265.11C246.95 264.25 246.24 263.43 244.89 262.65C244.04 262.16 243.13 261.81 242.16 261.61C241.2 261.41 240.25 261.36 239.31 261.48C238.38 261.6 237.54 261.87 236.81 262.29C236.04 262.74 235.57 263.23 235.4 263.77C235.23 264.31 235.42 264.85 235.95 265.39L238.51 267.99C239.18 268.66 239.08 269.25 238.22 269.75C237.56 270.13 236.8 270.29 235.95 270.24C235.09 270.19 234.26 269.92 233.44 269.45C231.57 268.37 231.63 267.17 233.61 265.83L231.29 264.92C230.03 265.86 229.41 266.8 229.44 267.74C229.47 268.68 230.19 269.55 231.6 270.37C232.51 270.89 233.48 271.27 234.51 271.49C235.54 271.71 236.56 271.76 237.57 271.64C238.58 271.52 239.49 271.22 240.3 270.76C241.16 270.26 241.67 269.73 241.82 269.15C241.97 268.57 241.77 268.01 241.22 267.44L241.21 267.43Z" fill="#FFFEF6"/>
<path d="M233.01 273.43C233.06 272.68 232.57 272.01 231.53 271.41L226.36 268.43L213.49 275.86L215.43 276.98L220.89 273.83L224.11 275.69C225.15 276.29 226.31 276.57 227.61 276.54C228.9 276.51 230.11 276.17 231.23 275.52C232.35 274.87 232.94 274.17 232.99 273.43H233.01ZM227.52 274.93C226.89 274.96 226.33 274.84 225.83 274.55L222.74 272.76L226.48 270.6L229.57 272.39C230.07 272.68 230.29 273 230.23 273.36C230.17 273.72 229.86 274.07 229.3 274.39C228.74 274.71 228.14 274.89 227.51 274.93H227.52Z" fill="#FFFEF6"/>
<path d="M243.801 282.68L234.511 284.66C233.771 284.82 233.021 285.03 232.261 285.28L232.231 285.26C232.771 284.98 233.261 284.72 233.701 284.47L238.621 281.63C239.171 281.31 239.461 281 239.501 280.69C239.541 280.38 239.321 280.09 238.851 279.82L237.151 278.84L227.861 280.82C227.191 280.97 226.441 281.18 225.611 281.44L225.581 281.42C226.141 281.14 226.631 280.87 227.051 280.63L233.651 276.82L231.761 275.73L224.201 280.09C223.661 280.4 223.381 280.71 223.341 281.03C223.301 281.35 223.511 281.64 223.981 281.91L225.621 282.85L234.881 280.87C235.501 280.74 236.281 280.54 237.231 280.28L237.261 280.3C236.631 280.63 236.141 280.89 235.791 281.09L230.871 283.93C230.331 284.24 230.051 284.55 230.011 284.87C229.971 285.19 230.181 285.48 230.651 285.75L232.291 286.69L245.791 283.82L243.831 282.69L243.801 282.68Z" fill="#FFFEF6"/>
</g>
<defs>
<clipPath id="clip0_1955_8898">
<rect width="358.9" height="267.79" fill="white" transform="translate(46 102)"/>
</clipPath>
</defs>
</svg>
